<?xml version="1.0" encoding="UTF-8" standalone="no"?>
<!-- Created with Inkscape (http://www.inkscape.org/) -->

<svg
   xmlns:dc="http://purl.org/dc/elements/1.1/"
   xmlns:cc="http://creativecommons.org/ns#"
   xmlns:rdf="http://www.w3.org/1999/02/22-rdf-syntax-ns#"
   xmlns:svg="http://www.w3.org/2000/svg"
   xmlns="http://www.w3.org/2000/svg"
   xmlns:sodipodi="http://sodipodi.sourceforge.net/DTD/sodipodi-0.dtd"
   xmlns:inkscape="http://www.inkscape.org/namespaces/inkscape"
   width="286.64325mm"
   height="248.75999mm"
   viewBox="0 0 286.64325 248.75999"
   version="1.1"
   id="svg8"
   sodipodi:docname="underConstruction.svg"
   inkscape:version="0.92.3 (2405546, 2018-03-11)">
  <defs
     id="defs2" />
  <sodipodi:namedview
     id="base"
     pagecolor="#ffffff"
     bordercolor="#666666"
     borderopacity="1.0"
     inkscape:pageopacity="0.0"
     inkscape:pageshadow="2"
     inkscape:zoom="0.70199214"
     inkscape:cx="466.8539"
     inkscape:cy="436.85724"
     inkscape:document-units="mm"
     inkscape:current-layer="layer1"
     showgrid="false"
     inkscape:window-width="1680"
     inkscape:window-height="987"
     inkscape:window-x="-8"
     inkscape:window-y="-8"
     inkscape:window-maximized="1"
     fit-margin-top="0"
     fit-margin-left="0"
     fit-margin-right="0"
     fit-margin-bottom="0" />
  <metadata
     id="metadata5">
    <rdf:RDF>
      <cc:Work
         rdf:about="">
        <dc:format>image/svg+xml</dc:format>
        <dc:type
           rdf:resource="http://purl.org/dc/dcmitype/StillImage" />
        <dc:title></dc:title>
      </cc:Work>
    </rdf:RDF>
  </metadata>
  <g
     inkscape:label="Layer 1"
     inkscape:groupmode="layer"
     id="layer1"
     transform="translate(18.521762,-15.325144)">
    <rect
       style="opacity:0.72000002;fill:#008080;fill-opacity:1;stroke:#008000;stroke-width:0.28258345;stroke-miterlimit:4;stroke-dasharray:none;stroke-opacity:1"
       id="rect10"
       width="286.36066"
       height="248.47742"
       x="-18.38047"
       y="15.466435" />
    <path
       style="opacity:0.72000002;fill:#0000ff;fill-opacity:1;stroke:#008000;stroke-width:0.26499999;stroke-miterlimit:4;stroke-dasharray:none;stroke-opacity:1"
       id="path32"
       d="m 44.490309,137.24503 c -0.627587,-0.47462 -1.113356,-1.08885 -1.841707,-1.41951 -0.625501,-0.25342 -1.020069,-0.18033 -1.58833,0.13571 -0.554133,0.27824 -1.180259,0.35776 -1.781197,0.48886 -0.749797,0.23613 -1.535221,0.37964 -2.259308,0.6868 -0.658604,0.22717 -1.281549,0.5186 -1.897745,0.83731 -0.497973,0.20066 -1.041959,0.20647 -1.508742,0.48902 1.066424,-0.60774 2.130795,-1.2191 3.199278,-1.82321 0.06923,-0.0391 -0.132418,0.0883 -0.20126,0.12815 -1.198354,0.69327 -2.400012,1.38081 -3.600128,2.07103 -0.07284,0.0419 -0.291639,0.16711 -0.218741,0.12531 3.209877,-1.84055 4.074964,-2.49876 2.850615,-1.5899 -0.514754,0.40129 -0.986009,0.84242 -1.418098,1.33053 -0.436043,0.55165 -0.863676,1.10714 -1.307803,1.65237 -0.316598,0.42402 -0.449236,0.94308 -0.659868,1.42253 -0.230087,0.50555 -0.308581,1.05046 -0.355878,1.59813 -0.0346,0.59954 -0.02993,1.20044 -0.02834,1.80071 -0.0027,0.61651 0.0011,1.23303 0.0031,1.84954 -7.94e-4,0.61359 -0.0011,1.22717 1.37e-4,1.84077 -0.01421,0.58553 0.02204,1.17515 0.192789,1.73727 0.223594,0.61092 0.50201,1.19888 0.741878,1.8033 0.186582,0.61073 0.387117,1.21644 0.587111,1.82295 0.21041,0.62293 0.464796,1.22857 0.832069,1.77546 0.485212,0.60548 0.946357,1.23398 1.354844,1.89377 0.488326,0.74721 1.038355,1.47747 1.70755,2.07268 0.424322,0.38218 0.905128,0.70572 1.379915,1.02368 0.391962,0.20346 0.73188,0.47916 1.157526,0.61275 0.628605,0.25375 1.13221,0.72164 1.768779,0.96092 0.935744,0.2517 1.916065,0.26383 2.879061,0.28535 0.711687,0.0113 1.423411,-0.001 2.135108,-0.002 0.20986,-0.0386 0.430131,0.0357 0.640046,-0.002 0.275288,-0.05 0.718989,-0.29095 0.970785,-0.42488 0.08205,-0.0359 0.164375,-0.0712 0.246155,-0.10766 0.44608,-0.1991 0.116039,-0.0385 0.52958,-0.2935 0.08414,-0.0519 0.343323,-0.19615 0.257614,-0.1469 -3.228838,1.85543 -4.110853,2.55488 -2.965122,1.66451 0.375576,-0.45344 0.541927,-1.0609 0.77951,-1.59856 0.339373,-0.6356 0.443328,-1.36392 0.796814,-1.98864 0.363934,-0.38776 0.551204,-0.81729 0.687014,-1.32196 0.177594,-0.48051 0.23521,-0.98675 0.314204,-1.48882 0.0811,-0.3649 0.224152,-0.71105 0.336261,-1.06685 0,0 3.574754,-1.69641 3.574754,-1.69641 v 0 c -0.09347,0.35249 -0.208418,0.69671 -0.358024,1.02996 -0.09948,0.50965 -0.10165,1.03905 -0.28889,1.53092 -0.177142,0.51058 -0.195215,1.06039 -0.636329,1.4437 -0.499776,0.52491 -0.501316,1.2868 -0.843502,1.91243 -0.130741,0.31256 -0.288041,0.61603 -0.410607,0.93166 -0.08382,0.21586 -0.111474,0.34326 -0.171405,0.56666 -0.03114,0.0815 -0.0809,0.15458 -0.121351,0.23187 -1.164563,1.4413 -3.180672,2.02417 -4.824587,2.85928 -0.558234,0.22019 -1.098706,0.34839 -1.706586,0.28792 -0.708007,0.004 -1.416193,10e-4 -2.123858,-0.0232 -0.99817,-0.0415 -2.02171,-0.0634 -2.974356,-0.3947 -0.610309,-0.2818 -1.135719,-0.71767 -1.774584,-0.93983 -0.429607,-0.18721 -0.816369,-0.44744 -1.215202,-0.69192 -0.474758,-0.34451 -0.972725,-0.66686 -1.388703,-1.0831 -0.667941,-0.6461 -1.240713,-1.39018 -1.754968,-2.16269 -0.419939,-0.64943 -0.873019,-1.27814 -1.361093,-1.87816 -0.385795,-0.57744 -0.660848,-1.2114 -0.886836,-1.86712 -0.199178,-0.5995 -0.408273,-1.19462 -0.574334,-1.80462 -0.240286,-0.61222 -0.529516,-1.2037 -0.754411,-1.82221 -0.20736,-0.59014 -0.274635,-1.22164 -0.255765,-1.8463 0.0011,-0.61328 0.0011,-1.22654 -0.0011,-1.83981 5.3e-4,-0.61629 0.0019,-1.23261 -0.004,-1.84888 -5.29e-4,-0.60846 -0.0016,-1.21711 0.01897,-1.82531 0.02559,-0.58262 0.08687,-1.1664 0.295484,-1.71608 0.206312,-0.50818 0.398201,-1.01693 0.623658,-1.51435 0.197895,-0.27924 0.441081,-0.49869 0.650988,-0.76404 0.229963,-0.2907 0.400715,-0.63494 0.648896,-0.91414 0.429821,-0.50032 0.85497,-0.99864 1.39622,-1.38573 1.258615,-1.20987 0.174905,-0.20465 3.888748,-2.37705 0.07352,-0.043 0.29837,-0.1644 0.224814,-0.12145 -1.058289,0.61784 -2.117937,1.23335 -3.179117,1.84621 -0.06867,0.0397 0.134305,-0.0844 0.201459,-0.12654 1.198861,-0.69223 2.397723,-1.38446 3.596584,-2.07669 0.499533,-0.16186 1.027914,-0.24084 1.491348,-0.49906 0.615444,-0.31284 1.268232,-0.53991 1.911173,-0.78877 0.757205,-0.24502 1.52637,-0.45519 2.298022,-0.64978 0.598183,-0.13939 1.198555,-0.26399 1.746644,-0.55482 0.623856,-0.2017 1.18749,-0.14763 1.780099,0.15394 0.695843,0.39027 1.199565,0.99778 1.865095,1.42663 0,0 -3.318917,2.15744 -3.318917,2.15744 z"
       inkscape:connector-curvature="0" />
    <path
       style="opacity:0.72000002;fill:#0000ff;fill-opacity:1;stroke:#008000;stroke-width:0.26499999;stroke-miterlimit:4;stroke-dasharray:none;stroke-opacity:1"
       id="path34"
       d="m 60.747483,139.37712 c -0.677846,-0.39665 -1.424471,-0.63072 -2.19248,-0.77178 -0.09006,-0.0104 -0.603875,-0.0748 -0.69713,-0.0665 -0.33111,0.0293 -0.744145,0.22667 -1.019706,0.40141 -1.245185,0.67791 -0.851678,0.46568 2.973816,-1.71193 0.07642,-0.0435 -0.149932,0.092 -0.223012,0.1409 -0.261327,0.17487 -0.502291,0.36138 -0.734663,0.57262 -0.562579,0.64913 -0.860576,1.46496 -1.259253,2.21352 -0.443495,0.69729 -0.843508,1.40869 -1.177721,2.16429 -0.318318,0.67277 -0.574622,1.35209 -0.70893,2.08457 -0.105434,0.66821 -0.114671,1.34559 -0.119311,2.02042 0.01598,0.59468 -0.02864,1.19248 0.02719,1.78521 0.06561,0.52988 0.155713,1.02853 0.423508,1.49379 0.388456,0.62438 0.909236,1.10207 1.508506,1.51332 0.578348,0.32295 1.158209,0.63448 1.794825,0.82418 0.588571,0.14727 1.199132,0.14782 1.801979,0.1551 0.606661,5.2e-4 1.213329,-10e-4 1.819987,-0.004 0.350986,-0.0695 0.178967,-0.007 0.467889,-0.16453 0.06429,-0.035 0.257236,-0.13975 0.193702,-0.10342 -1.066557,0.60998 -4.241702,2.4804 -3.202842,1.82437 2.775405,-1.75266 2.365965,-1.57488 3.821953,-2.16415 0.553056,-0.17846 1.148096,-0.10645 1.703536,-0.24868 1.147337,-0.73344 2.839919,-1.49852 -2.86014,1.61879 -0.06968,0.0381 0.115289,-0.10956 0.167756,-0.16918 0.139779,-0.15884 0.262271,-0.3321 0.39274,-0.49868 0.439705,-0.52428 0.715245,-1.15289 0.964017,-1.78378 0.194881,-0.52113 0.230746,-1.07541 0.251846,-1.62565 0.01421,-0.59748 0.0048,-1.19515 0.0062,-1.79273 -7.94e-4,-0.60731 -0.0037,-1.21461 -0.0053,-1.82192 0.0013,-0.60772 0.0019,-1.21543 7.94e-4,-1.82315 -0.0047,-0.5914 -0.193561,-1.18372 -0.387294,-1.74006 -0.231453,-0.49595 -0.291426,-1.03429 -0.395896,-1.56322 -0.215776,-0.41303 -0.43733,-0.8272 -0.658747,-1.23997 -0.274479,-0.26113 -0.544446,-0.55059 -0.891426,-0.71661 -0.473533,-0.1717 -0.982588,-0.17963 -1.480209,-0.19326 -0.599839,-0.03 -1.206344,0.047 -1.77854,0.22971 0,0 3.138967,-2.40227 3.138967,-2.40227 v 0 c 0.610185,-0.11858 1.223719,-0.19043 1.846493,-0.13726 0.546777,0.0298 1.101111,0.0797 1.593918,0.3408 0.38031,0.23982 0.732441,0.55693 1.009454,0.90959 0.235945,0.44737 0.478687,0.89035 0.706877,1.33978 0.114848,0.50932 0.142931,1.03905 0.368747,1.52056 0.107252,0.3049 0.180002,0.61355 0.27019,0.92374 0.03004,0.10332 0.164727,0.53506 0.179292,0.64245 0.01307,0.0964 -2.64e-4,0.19456 -5.29e-4,0.29185 -0.0011,0.6073 -7.94e-4,1.21459 0.0011,1.82188 -7.94e-4,0.60758 -0.0021,1.21518 0.0013,1.82275 0.0055,0.60124 0.0061,1.20257 -1.87e-4,1.8038 -0.01095,0.58485 -0.02307,1.17498 -0.195281,1.7397 -0.225846,0.66548 -0.51516,1.32574 -0.919507,1.90145 -0.0766,0.096 -0.434954,0.65793 -0.51997,0.71232 -0.623654,0.39893 -2.539343,1.96171 -3.967736,2.27073 -0.556149,0.0572 -1.129776,0.0832 -1.640943,0.33414 -1.732471,0.94881 6.688859,-3.66118 2.975051,-1.72536 -1.335712,0.69624 -2.702597,2.12695 -4.351549,2.18804 -0.608965,0.002 -1.218041,0.0102 -1.826921,-0.004 -0.629693,-0.021 -1.266608,-0.0471 -1.868676,-0.25244 -0.649663,-0.23813 -1.267965,-0.55803 -1.855607,-0.92247 -0.629571,-0.45542 -1.165834,-1.00338 -1.595191,-1.65495 -0.311553,-0.51143 -0.443696,-1.04261 -0.510353,-1.63591 -0.08074,-0.60605 -0.03195,-1.22035 -0.04433,-1.83057 0.0053,-0.69416 0.0058,-1.391 0.09876,-2.08028 0.117433,-0.76647 0.316103,-1.4833 0.670634,-2.17692 0.343755,-0.76282 0.671399,-1.52286 1.168744,-2.20384 0.45457,-0.73448 0.719728,-1.56752 1.200158,-2.29118 1.14568,-1.37505 3.426457,-2.13914 4.725625,-2.99123 0.618794,-0.21769 1.212405,-0.29052 1.859582,-0.11695 0.793329,0.18926 1.556136,0.47336 2.273252,0.86541 0,0 -3.318917,2.15743 -3.318917,2.15743 z"
       inkscape:connector-curvature="0" />
    <path
       style="opacity:0.72000002;fill:#0000ff;fill-opacity:1;stroke:#008000;stroke-width:0.26499999;stroke-miterlimit:4;stroke-dasharray:none;stroke-opacity:1"
       id="path38"
       d="m 71.688599,158.96448 c 0.473136,0.60323 1.07084,1.11223 1.671304,1.5872 0.519618,0.32574 1.119857,0.39664 1.717998,0.43247 0.08827,-0.0139 0.182198,-0.008 0.2648,-0.0418 0.07935,-0.0327 0.282295,-0.19445 0.207159,-0.15296 -1.069692,0.59074 -2.115916,1.22383 -3.192622,1.80168 -0.09175,0.0492 0.157592,-0.13659 0.229825,-0.2116 0.237281,-0.24639 0.288002,-0.34729 0.49303,-0.64197 0.522214,-0.85019 0.698373,-1.82126 0.800412,-2.79738 0.08576,-1.08471 0.07742,-2.17389 0.07476,-3.26112 0.009,-1.37053 0.0051,-2.74113 0.0013,-4.11167 -0.0036,-1.06172 -0.01193,-2.12342 -0.02117,-3.18511 7.94e-4,-0.84786 0.0013,-1.69569 0.0028,-2.54356 0.0026,-0.85037 6e-5,-1.70071 -0.005,-2.55107 -0.0045,-0.77784 0.0021,-1.5557 0.0065,-2.33353 0.0058,-0.9132 -0.0026,-1.82638 -0.0034,-2.73959 -0.0016,-0.85147 0.0021,-1.70295 0.0021,-2.55442 0.0075,-0.92376 -0.120661,-1.84182 -0.184605,-2.76237 -0.0535,-0.68427 -0.01162,-1.40097 -0.23485,-2.06062 0.0013,0.0143 -0.0092,0.0494 0.0036,0.0429 3.828873,-1.94503 3.234648,-2.90433 3.777642,-0.64552 0.262924,0.94793 0.619749,1.86453 0.909817,2.80434 0.277453,0.94525 0.708978,1.82561 1.137013,2.70845 0.482915,0.92178 0.743204,1.93365 1.096362,2.90838 0.373541,0.7414 0.436938,1.58687 0.767857,2.33993 0.38553,0.71258 0.775984,1.42534 1.202794,2.11454 0.552458,0.87956 1.058476,1.78774 1.560568,2.69671 0.441256,0.7356 0.993894,1.39602 1.459661,2.11377 0.332825,0.59733 0.486518,1.27038 0.759851,1.89432 0.33445,0.68693 0.739056,1.3365 1.182786,1.95768 0.411242,0.5608 0.687549,1.18834 0.861422,1.85794 0.02588,0.0814 0.04086,0.16721 0.07766,0.24434 0.09353,0.19601 0.291348,0.34211 0.40472,0.52727 0.124034,0.20258 0.154506,0.31632 0.237479,0.53769 0.228611,0.54505 0.327189,1.12848 0.51358,1.68679 0.230354,0.59396 0.349819,1.2198 0.513453,1.83323 0.276709,0.647 0.515694,1.33054 0.862124,1.9444 0.389427,0.49515 0.484216,1.12139 0.739087,1.67882 0.744863,1.07724 3.672811,-0.23024 -3.328181,1.72002 -0.186967,0.0521 -0.05282,-0.38502 -0.09509,-0.57444 -0.03631,-0.16269 -0.346819,-1.2395 -0.382974,-1.366 -0.352475,-1.30015 -0.865047,-2.54912 -1.231667,-3.84443 -0.259903,-0.79119 -0.46681,-1.59157 -0.565465,-2.4185 -0.06211,-0.61858 -0.06914,-1.24079 -0.06685,-1.8619 0.0057,-0.70332 0.0069,-1.40669 0.0078,-2.11004 -0.0042,-0.69757 0.0032,-1.39508 0.0024,-2.09265 -0.0053,-0.72162 -5.29e-4,-1.4432 0.0024,-2.16482 0.0046,-0.88969 5.29e-4,-1.77942 0.0048,-2.66911 -0.0019,-0.80419 -0.0059,-1.60837 -0.0077,-2.41256 -0.0013,-0.62505 -0.0067,-1.25011 -0.0034,-1.87516 -8.7e-5,-0.64179 -0.0011,-1.28353 0.0033,-1.9253 0.0061,-0.84885 0.0073,-1.69768 0.0029,-2.54654 6.1e-5,-0.76231 -2.65e-4,-1.5246 -0.004,-2.28692 -0.0035,-0.63688 -0.0011,-1.27377 -0.0024,-1.91066 -0.04523,-0.54204 0.04958,-1.06701 0.144153,-1.59675 0.103724,-0.48118 0.194757,-0.97692 0.488169,-1.3811 1.783011,-1.13705 2.969279,-2.06766 4.84351,-2.36239 0.572074,-0.0697 1.150115,-0.0645 1.725509,-0.0689 0.596975,-0.0226 1.179643,-0.007 1.766417,0.10185 0.6399,0.21062 0.797528,0.31901 1.232043,0.82389 0.283951,0.38909 0.607433,0.74139 0.870061,1.14732 0.310832,0.54419 0.375346,1.17533 0.424249,1.78844 0.04792,0.37292 0.220231,0.68815 0.406037,1.00628 0,0 -3.419297,1.97956 -3.419297,1.97956 v 0 c -0.221637,-0.36825 -0.410168,-0.74107 -0.495959,-1.1674 -0.03122,-0.54734 -0.06118,-1.11912 -0.332047,-1.60906 -0.256096,-0.38844 -0.576818,-0.72183 -0.847251,-1.09921 -0.320845,-0.3705 -0.58887,-0.49478 -1.075137,-0.59688 -0.571524,-0.0796 -1.147313,-0.0488 -1.722988,-0.0484 -0.564817,0.01 -1.134073,0.0161 -1.689442,0.13155 -1.559467,0.36996 -3.825208,1.61747 1.988638,-1.52203 -0.45071,0.22807 -0.464836,0.69102 -0.610045,1.13314 -0.06524,0.51819 -0.234688,1.01737 -0.176919,1.54665 -0.0013,0.63766 0.0013,1.27531 -0.0024,1.91296 -0.0036,0.76367 -0.004,1.52731 -0.004,2.29096 -0.0044,0.84788 -0.0033,1.69572 0.0029,2.54358 0.0045,0.64065 0.0034,1.28126 0.0033,1.92192 0.0033,0.62622 -0.0021,1.25244 -0.0034,1.87866 -0.0019,0.8068 -0.0058,1.61358 -0.0077,2.42038 0.0044,0.88807 2.14e-4,1.77618 0.0048,2.66425 0.003,0.72085 0.0076,1.44167 0.0024,2.16254 -7.93e-4,0.69734 0.0064,1.39463 1.72e-4,2.09197 -0.0013,0.70211 -0.0048,1.40422 -0.0021,2.10633 0.0026,0.6092 -0.0051,1.21931 0.04173,1.82726 0.07783,0.81137 0.260162,1.60093 0.508346,2.37768 0.344784,1.30103 0.835515,2.55777 1.203069,3.85256 0.04772,0.15974 0.595656,1.92842 0.551532,1.96876 -2.517871,2.30203 -2.715869,3.51472 -3.596934,2.05699 -0.251534,-0.5496 -0.344673,-1.16163 -0.716357,-1.65605 -0.355274,-0.64668 -0.601689,-1.35977 -0.916458,-2.02652 -0.15907,-0.60467 -0.270743,-1.22199 -0.494512,-1.80792 -0.203605,-0.55262 -0.290756,-1.13472 -0.518729,-1.67948 -0.185697,-0.53275 -0.574849,-0.82038 -0.73616,-1.34975 -0.141904,-0.63041 -0.396037,-1.20888 -0.782516,-1.73103 -0.454615,-0.64591 -0.851607,-1.32837 -1.222777,-2.02516 -0.271579,-0.60398 -0.4264,-1.25225 -0.726446,-1.84274 -0.467889,-0.72808 -1.010922,-1.40658 -1.457806,-2.14921 -0.485452,-0.90803 -0.997617,-1.80303 -1.547159,-2.67392 -0.451242,-0.69547 -0.851935,-1.42645 -1.245825,-2.15549 -0.345895,-0.76245 -0.401511,-1.61592 -0.771782,-2.37388 -0.333915,-0.96581 -0.593921,-1.9641 -1.070708,-2.87214 -0.439406,-0.9003 -0.882568,-1.7958 -1.159343,-2.76333 -0.298146,-0.94355 -0.649552,-1.86577 -0.941562,-2.81069 -0.08427,-0.31245 -0.151469,-0.62952 -0.250042,-0.93781 -0.02553,-0.0798 -0.149262,-0.18984 -0.08076,-0.23814 3.341518,-2.35575 2.734326,-3.26366 3.50149,-2.00461 0.192644,0.70361 0.198848,1.43919 0.232022,2.16267 0.06194,0.9285 0.194008,1.85312 0.201665,2.78363 -1.93e-4,0.85079 0.0036,1.70158 0.0021,2.55238 -7.94e-4,0.91435 -0.0092,1.82869 -0.0034,2.74305 0.0043,0.77561 0.01103,1.55124 0.0065,2.32686 -0.0051,0.85209 -0.0077,1.70415 -0.0051,2.55624 0.0016,0.84691 0.0019,1.6938 0.0027,2.5407 -0.009,1.06822 -0.0168,2.13645 -0.0182,3.2047 -5.29e-4,1.36741 7.94e-4,2.73488 0.0172,4.1022 1.27e-4,1.09715 0.01484,2.19591 -0.04971,3.2916 -0.09188,1.01765 -0.233826,2.03928 -0.720016,2.95544 -0.911961,1.70238 -2.838625,3.16443 -4.813361,3.13029 -0.658183,-0.0779 -1.300353,-0.22748 -1.842204,-0.63289 -0.612277,-0.5181 -1.224068,-1.05023 -1.73446,-1.67101 0,0 3.406614,-2.01096 3.406614,-2.01096 z"
       inkscape:connector-curvature="0" />
    <path
       style="opacity:0.72000002;fill:#0000ff;fill-opacity:1;stroke:#008000;stroke-width:0.26499999;stroke-miterlimit:4;stroke-dasharray:none;stroke-opacity:1"
       id="path40"
       d="m 105.78785,139.37712 c -0.67785,-0.39665 -1.42447,-0.63072 -2.19248,-0.77178 -0.64973,-0.0898 -1.30678,-0.0919 -1.96134,-0.0924 -0.48525,0.14629 -1.0132,0.10005 -1.43143,0.40755 -0.062,0.0388 -0.12153,0.0818 -0.18589,0.11653 -0.504708,0.27229 0.11328,-0.084 -0.4134,0.15885 -0.06206,0.0286 -0.231918,0.14461 -0.172551,0.11075 3.246501,-1.85166 4.197851,-2.65169 3.075611,-1.72572 -0.38251,0.44836 -0.69966,0.95163 -1.05036,1.42623 -0.34183,0.45778 -0.48797,1.01387 -0.66002,1.54945 -0.24319,0.67315 -0.33709,1.37978 -0.39373,2.08897 -0.0418,0.71815 -0.0412,1.4378 -0.0391,2.15688 0.03,0.75972 0.44898,1.4165 0.92714,1.98006 0.55798,0.61686 1.22899,1.10701 1.9054,1.5833 0.5708,0.47422 1.24782,0.72076 1.96946,0.84264 0.64709,0.11206 1.29182,0.21677 1.94838,0.26979 0.54422,0.14067 1.00567,0.38691 1.56636,0.49291 0.61439,0.19204 0.90578,0.24377 1.26729,0.81836 0.184,0.46547 0.34184,0.9487 0.43628,1.44145 0.0899,0.57612 0.10398,1.16011 0.1143,1.74198 -0.002,0.69218 2.7e-4,1.38438 -0.003,2.07655 2.7e-4,0.678 0.002,1.35595 -0.002,2.03394 -0.003,0.69111 0.007,1.3822 1.2e-4,2.07329 -0.001,0.79045 -0.002,1.58089 -0.004,2.37134 -0.0163,0.8523 -0.21113,1.68376 -0.35988,2.51891 -0.12258,0.73466 -0.5308,1.36882 -0.85285,2.02708 -0.29724,0.59283 -0.54281,1.20868 -0.79554,1.82116 -0.21404,0.62808 -0.70895,0.99012 -1.24785,1.32821 -2.32852,2.21084 -2.57394,1.65849 -4.24111,2.28735 -0.316,0.1192 -0.61542,0.27591 -0.93565,0.39001 -0.69604,0.24088 -1.43063,0.24104 -2.157651,0.25353 -1.039569,0.0143 -2.079355,0.0107 -3.118999,0.006 -1.253095,0.0478 -2.486805,-0.0324 -3.723655,-0.22598 -0.804538,-0.22435 -1.646585,-0.32792 -2.415088,-0.66286 -0.623202,-0.40037 -1.262885,-0.77522 -1.870617,-1.19903 -0.369528,-0.22856 -0.191807,-0.1072 -0.533707,-0.36327 0,0 3.337475,-2.1152 3.337475,-2.1152 v 0 c 0.327853,0.2366 0.154681,0.11723 0.52083,0.3562 0.591793,0.39989 1.193961,0.79184 1.826098,1.12455 0.754303,0.27526 1.552049,0.42423 2.331194,0.61087 1.226341,0.18368 2.454939,0.20715 3.693887,0.17493 1.040203,-0.001 2.080693,0.007 3.120573,-0.0247 0.71405,-0.0365 1.42783,-0.0893 2.09592,-0.36884 1.45536,-0.58628 4.42868,-1.93372 -1.6117,1.181 0.49954,-0.29969 1.07773,-0.54952 1.34707,-1.09736 0.24511,-0.62009 0.4916,-1.24217 0.78754,-1.84001 0.28875,-0.65145 0.7181,-1.24369 0.90118,-1.93674 0.14573,-0.81857 0.35738,-1.62621 0.39762,-2.4602 -0.002,-0.78909 -0.003,-1.57817 -0.004,-2.36727 -0.007,-0.6912 0.003,-1.38242 2.7e-4,-2.07365 -0.004,-0.67793 -0.001,-1.35583 7.9e-4,-2.03377 -10e-4,-0.68867 0.006,-1.37737 -0.005,-2.06601 -0.005,-0.56143 -0.0105,-1.12491 -0.0861,-1.68222 -0.0768,-0.44667 -0.22532,-0.87663 -0.3661,-1.30542 -0.24751,-0.38232 -0.67803,-0.44308 -1.09518,-0.56018 -0.51892,-0.13324 -0.99315,-0.39424 -1.52714,-0.45876 -0.66475,-0.0695 -1.32222,-0.17806 -1.97873,-0.30275 -0.74898,-0.18359 -1.44379,-0.4959 -2.045381,-0.98789 -0.697827,-0.50207 -1.396187,-1.01759 -1.964383,-1.66869 -0.514035,-0.6416 -0.987911,-1.37574 -1.066681,-2.21311 0.0021,-0.72794 -5.29e-4,-1.4563 0.0336,-2.18363 0.04013,-0.73597 0.117628,-1.4699 0.341079,-2.17633 0.195451,-0.55483 0.303573,-1.14703 0.610357,-1.6565 0.341945,-0.48876 0.729723,-0.94728 1.013306,-1.47517 1.090539,-1.36485 2.943243,-1.84017 4.453123,-2.65596 0.49455,-0.14945 1.02087,-0.226 1.53551,-0.25392 0.669,0.0114 1.34137,0.0318 1.9999,0.16164 0.79333,0.18926 1.55614,0.47335 2.27326,0.8654 0,0 -3.31892,2.15743 -3.31892,2.15743 z"
       inkscape:connector-curvature="0" />
    <path
       style="opacity:0.72000002;fill:#0000ff;fill-opacity:1;stroke:#008000;stroke-width:0.26499999;stroke-miterlimit:4;stroke-dasharray:none;stroke-opacity:1"
       id="path42"
       d="m 106.92159,126.87138 c 1.06416,-0.176 2.13116,-0.33296 3.20384,-0.44665 0.71436,-0.0771 1.43276,-0.0847 2.15036,-0.0898 0.69715,-5.3e-4 1.39428,0.004 2.09143,0.003 0.68287,-0.003 1.36572,0.001 2.04859,0.004 0.84343,0.005 1.68688,-0.001 2.53031,0.002 0.99449,-0.001 1.98895,0.006 2.98344,0.006 0.94001,-5.3e-4 1.88001,-0.003 2.82002,-0.008 0.62838,-0.0226 1.26535,0.0898 1.85779,-0.15618 0.4908,-0.25965 1.05334,-0.25153 1.57167,-0.40246 0.50986,-0.15562 1.04012,-0.20358 1.56961,-0.23156 0.60365,-0.0156 1.20754,-0.0159 1.81135,-0.0161 0.37885,-0.0254 0.7712,0.0593 1.14216,-0.0481 0.17474,-0.0506 0.33826,-0.13401 0.5085,-0.19813 1.48676,-0.44746 4.02287,-2.0655 -1.79314,1.24182 0.48792,-0.31464 0.84675,-0.76979 1.33351,-1.08665 1.35356,-1.12655 2.85781,-2.3125 4.63384,-2.5306 -0.11123,0.18855 0.90855,-0.42956 0.67182,-0.29712 -5.31777,2.97499 -3.81699,2.30761 -2.68114,1.46147 0.0782,-0.0616 0.149,-0.13406 0.23471,-0.18474 1.20498,-0.71239 2.43585,-1.38072 3.63491,-2.10301 0.14828,-0.0893 -9.36524,5.38972 0.46059,-0.26806 0,0 -3.08102,2.48512 -3.08102,2.48512 v 0 c 10.60404,-6.14218 -7.84855,4.56226 2.6641,-1.56118 0.0832,-0.0484 -0.16473,0.0996 -0.24709,0.14943 -0.19115,0.18125 -0.22326,0.23166 -0.45249,0.3681 -1.49495,0.88983 -2.70783,2.01385 -4.3629,2.33314 -0.16498,0.0408 -0.63211,0.24012 -0.48643,0.15262 6.82842,-4.10148 3.49881,-2.35662 2.69724,-1.45561 -0.21051,0.15559 -0.4468,0.25409 -0.64643,0.425 -0.3236,0.27704 -0.11863,0.14799 -0.43555,0.46146 -0.0804,0.0796 -0.17161,0.14752 -0.25741,0.22129 -1.71723,0.9926 -3.169,2.05477 -5.00996,2.615 -0.56563,0.16849 -1.13968,0.15666 -1.72593,0.14265 -0.59947,7.9e-4 -1.19991,-0.002 -1.79812,0.042 -0.51841,0.0489 -1.02797,0.14187 -1.53063,0.2795 -0.53337,0.0956 -1.0499,0.23366 -1.56013,0.41737 -0.63103,0.10772 -1.2732,0.0481 -1.91084,0.0593 -0.93281,-0.004 -1.86561,-0.007 -2.79843,-0.008 -0.99961,-0.001 -1.99919,0.007 -2.9988,0.006 -0.84485,0.003 -1.68972,-0.003 -2.53457,0.001 -0.68506,0.002 -1.37011,0.005 -2.05516,5.3e-4 -0.69706,-0.003 -1.39411,-0.004 -2.09116,0.002 -0.70447,0.009 -1.40911,0.0323 -2.11007,0.10781 -1.08606,0.11856 -2.16169,0.30829 -3.24727,0.4262 0,0 3.19488,-2.32122 3.19488,-2.32122 z"
       inkscape:connector-curvature="0" />
    <path
       style="opacity:0.72000002;fill:#0000ff;fill-opacity:1;stroke:#008000;stroke-width:0.26499999;stroke-miterlimit:4;stroke-dasharray:none;stroke-opacity:1"
       id="path44"
       d="m 122.26735,126.54621 c 0.19841,0.8539 0.3274,1.71901 0.41372,2.59065 0.0723,0.72663 0.0694,1.4569 0.074,2.18615 -0.001,0.80787 -0.006,1.61567 -0.003,2.42354 7.9e-4,0.68672 0.002,1.37343 0.004,2.06015 0.002,0.61288 -8e-4,1.22575 1e-4,1.83864 0.003,0.59181 8e-4,1.1836 -5.3e-4,1.7754 -2.6e-4,0.74885 -0.006,1.49766 -0.008,2.24651 -0.004,0.9516 -0.003,1.90319 -0.003,2.8548 -0.001,0.94112 0.004,1.88228 2.6e-4,2.82339 0.002,0.93528 0.001,1.87054 5.3e-4,2.80582 0.007,0.89369 -0.0216,1.78859 0.0281,2.68125 0.0799,0.73615 0.23593,1.46979 0.41969,2.18728 0.23051,0.7936 0.28,1.61888 0.45216,2.42625 0.21885,0.85361 0.33694,1.72354 0.40075,2.60078 0.042,0.71086 0.0437,1.42343 0.0468,2.13531 0.003,0.60299 -0.003,1.20594 -0.003,1.80892 0.0154,0.58527 -0.0285,1.17336 0.0226,1.75692 0.13123,0.41762 0.29157,0.82666 0.47393,1.2247 0.20435,0.45637 0.69803,0.55249 1.14656,0.62707 0.57793,0.0996 1.14943,0.2128 1.736,0.26611 0.40606,0.0263 0.20422,0.0154 0.60551,0.033 0,0 -3.21011,2.30462 -3.21011,2.30462 v 0 c -0.40717,-0.0282 -0.20224,-0.0117 -0.61478,-0.05 -0.59413,-0.0714 -1.1787,-0.18926 -1.76676,-0.29806 -0.55489,-0.14901 -1.09073,-0.38191 -1.34951,-0.9329 -0.19859,-0.43733 -0.36756,-0.88611 -0.52356,-1.34066 -0.0785,-0.59584 -0.0279,-1.19824 -0.0396,-1.79803 10e-4,-0.60294 -0.002,-1.20586 0.004,-1.80878 0.003,-0.70614 0.007,-1.41261 -0.0241,-2.11825 -0.0483,-0.86158 -0.14964,-1.71785 -0.35711,-2.55734 -0.0219,-0.0986 -0.20557,-0.92125 -0.22187,-1.021 -0.0752,-0.46025 -0.0803,-0.93476 -0.24811,-1.37787 -0.194,-0.73911 -0.33733,-1.50039 -0.43964,-2.2566 -0.0836,-0.90041 -0.0112,-1.80702 -0.0356,-2.7104 -2.6e-4,-0.93548 -0.001,-1.87095 5.3e-4,-2.80644 -0.004,-0.94121 10e-4,-1.88246 2.7e-4,-2.82367 -9e-5,-0.95043 10e-5,-1.90085 -0.003,-2.85128 -0.002,-0.74613 -0.008,-1.49222 -0.008,-2.23836 -10e-4,-0.59163 -0.004,-1.18326 -5.3e-4,-1.7749 0.001,-0.61297 -0.002,-1.22592 1.8e-4,-1.83888 0.002,-0.6886 0.004,-1.3772 0.006,-2.0658 0.005,-0.80693 0.004,-1.61382 0.002,-2.42075 -5.3e-4,-0.71987 -0.007,-1.44036 -0.0531,-2.15898 -0.0679,-0.85126 -0.17356,-1.70126 -0.40487,-2.52575 0,0 3.48119,-1.88256 3.48119,-1.88256 z"
       inkscape:connector-curvature="0" />
    <path
       style="opacity:0.72000002;fill:#0000ff;fill-opacity:1;stroke:#008000;stroke-width:0.26499999;stroke-miterlimit:4;stroke-dasharray:none;stroke-opacity:1"
       id="path46"
       d="m 135.75605,170.25131 c -0.0379,-1.39623 -0.33469,-2.7678 -0.59929,-4.13425 -0.21279,-1.23757 -0.47313,-2.46355 -0.61559,-3.71196 -0.0915,-0.54727 0.0684,-1.10361 0.0215,-1.65014 -0.0155,-0.18062 -0.10887,-0.43491 -0.16234,-0.60133 -0.34902,-0.66455 -0.56219,-1.34827 -0.66137,-2.08987 -0.17176,-1.0259 -0.52512,-2.00537 -0.79591,-3.00641 -0.26738,-1.09043 -0.67109,-2.13822 -1.01391,-3.20571 -0.46185,-1.05813 -0.84133,-2.15088 -1.31314,-3.20424 -0.37371,-0.77886 -0.664,-1.59123 -0.85012,-2.43429 -0.11284,-0.71094 -0.33245,-1.37955 -0.59324,-2.04732 -0.28905,-0.76534 -0.64593,-1.50203 -0.95197,-2.26067 -0.21752,-0.56978 -0.44102,-1.16393 -0.14185,-1.73795 2.91123,-1.6808 2.83801,-2.27664 5.0872,-1.7734 0.565,0.32992 1.00637,0.67179 1.64361,0.86816 0.45915,0.24973 0.95147,0.33181 1.46423,0.37399 0.6586,0.10592 1.10483,0.56983 1.57309,0.99894 0.54271,0.45801 1.17067,0.79991 1.74411,1.21557 0.57702,0.38794 0.90157,0.94097 1.18318,1.55794 0.38028,0.58572 0.74938,1.1449 0.964,1.81442 0.25831,0.66473 0.35641,1.36073 0.41971,2.06601 0.0494,0.76001 0.0502,1.52204 0.0549,2.28333 0.005,0.61515 7.9e-4,1.23029 -0.001,1.84544 -0.004,0.69295 -0.3418,1.26948 -0.77279,1.78435 -0.39253,0.44997 -0.65351,0.99304 -0.98124,1.48876 -0.36906,0.37289 -0.4747,0.87355 -0.68876,1.33024 -0.10879,0.15448 -0.64874,0.88283 -0.82642,0.82539 -0.01,-0.0367 -0.0428,-0.0747 -0.0293,-0.1102 0.0139,-0.0367 0.84316,-0.0108 0.93594,-0.01 0.58336,0.12358 1.11852,0.37987 1.55462,0.7862 0.41476,0.45308 0.61735,1.04091 0.88373,1.58415 0.27878,0.58713 0.5153,1.19811 0.736,1.81013 0.10549,0.23886 0.0875,0.51581 0.22656,0.74166 0.11846,0.19238 0.29339,0.34746 0.41594,0.54293 0.21948,0.424 0.37545,0.89663 0.7459,1.21327 0.63939,0.30283 1.24912,0.64943 1.89173,0.94768 0.8133,0.39279 1.63892,0.77245 2.51168,1.01272 0.55494,0.14854 1.09289,0.30557 1.66654,0.36998 0.57096,0.0499 1.14477,0.0489 1.71742,0.0509 0.61041,0.0503 1.13051,-0.23476 1.65003,-0.50714 1.2429,-0.4379 3.23995,-1.68678 -2.63989,1.57285 -0.0866,0.048 0.15968,-0.11734 0.23975,-0.17568 0.26458,-0.19276 0.19716,-0.14381 0.45485,-0.32404 0.52452,-0.44089 0.86771,-1.07113 1.18922,-1.66732 0.22899,-0.42706 0.34782,-0.88884 0.43578,-1.3611 0,0 3.54192,-1.73244 3.54192,-1.73244 v 0 c -0.0735,0.50767 -0.16397,1.00932 -0.39195,1.47524 -0.30938,0.63706 -0.67332,1.25443 -1.10055,1.81871 -0.44297,0.37424 0.0333,-0.0101 -0.45704,0.32971 -1.38185,0.95777 -2.81279,1.87599 -4.3632,2.53548 -0.55476,0.26094 -1.13848,0.3988 -1.75561,0.3555 -0.5846,-0.005 -1.17113,-0.009 -1.75127,-0.0904 -0.57778,-0.0936 -1.12917,-0.2703 -1.69164,-0.42838 -0.86905,-0.28749 -1.69928,-0.67807 -2.52571,-1.06912 -0.67774,-0.31282 -1.36833,-0.63031 -1.99431,-1.03399 -0.36275,-0.3706 -0.58054,-0.82836 -0.79381,-1.29706 -0.31017,-0.47309 -0.62831,-0.75478 -0.68269,-1.3676 -0.20311,-0.60055 -0.42915,-1.20131 -0.71585,-1.76607 -0.2457,-0.49479 -0.40876,-1.04648 -0.79598,-1.45349 -0.40184,-0.31895 -0.89181,-0.52885 -1.40953,-0.55281 -0.49268,-0.0154 -1.01852,0.0275 -1.28512,-0.46496 -0.008,-0.0667 -0.0428,-0.13556 -0.024,-0.20001 0.0447,-0.15288 0.73856,-0.56889 0.80895,-0.77574 0.0552,-0.0555 0.12387,-0.10012 0.16547,-0.16635 0.20994,-0.33413 0.14538,-0.89689 0.5146,-1.18761 0.40612,-0.44969 0.62688,-1.02837 0.97589,-1.52001 0.41909,-0.42879 0.83931,-0.89818 0.89494,-1.52185 -1.2e-4,-0.61559 -2.1e-4,-1.23116 0.006,-1.84673 0.003,-0.75229 0.006,-1.50525 -0.0374,-2.25662 -0.05,-0.67839 -0.1353,-1.34919 -0.38438,-1.98808 -0.19325,-0.66044 -0.57602,-1.19419 -0.94118,-1.77039 -0.24985,-0.5613 -0.54771,-1.03879 -1.07729,-1.3793 -0.59019,-0.41653 -1.21837,-0.78323 -1.766,-1.25741 -0.42402,-0.38638 -0.84134,-0.74703 -1.44185,-0.7866 -0.53129,-0.0714 -1.03036,-0.21846 -1.51564,-0.44947 -0.57033,-0.22555 -1.04823,-0.60126 -1.61288,-0.82365 -1.9646,-0.36705 -3.09719,0.85457 1.85652,-1.93098 -0.0605,-7.9e-4 -0.12474,-0.0228 -0.18161,-0.002 -0.43517,0.15889 0.001,1.02866 0.0598,1.2682 0.29961,0.7612 0.66666,1.49294 0.95307,2.25923 0.28182,0.68615 0.51766,1.36981 0.63305,2.10582 0.15578,0.82497 0.43143,1.61192 0.78982,2.37147 0.46729,1.0707 0.8414,2.18004 1.31452,3.249 0.35296,1.07122 0.77605,2.11851 1.0383,3.21732 0.26316,1.0191 0.63195,2.00775 0.83295,3.04344 0.0926,0.71676 0.29159,1.3782 0.63744,2.01735 0.061,0.17705 0.19145,0.52994 0.21751,0.71406 0.0763,0.53877 -0.1208,1.08451 -0.0593,1.62508 0.1187,1.24551 0.36216,2.46977 0.56335,3.70364 0.25257,1.38426 0.55792,2.75965 0.70617,4.16064 0,0 -3.52732,1.79725 -3.52732,1.79725 z"
       inkscape:connector-curvature="0" />
    <path
       style="opacity:0.72000002;fill:#0000ff;fill-opacity:1;stroke:#008000;stroke-width:0.26499999;stroke-miterlimit:4;stroke-dasharray:none;stroke-opacity:1"
       id="path48"
       d="m 148.61125,131.91908 c -0.0289,0.95126 -0.0181,1.90314 -0.0114,2.85465 0.006,0.69111 0.005,1.38225 0.007,2.07338 0.004,0.60755 -1.2e-4,1.2151 1.7e-4,1.82266 0.004,0.65976 -0.004,1.31944 -0.003,1.9792 -0.001,0.85654 -0.007,1.71308 -0.007,2.56962 0.003,0.93092 7.9e-4,1.86181 -0.002,2.79274 -0.042,0.88457 -0.0103,1.73705 0.25134,2.58508 0.22385,0.56179 0.29513,1.18932 0.68284,1.66913 0.19178,0.15802 0.31988,0.3836 0.52577,0.52626 0.25814,0.17887 0.15641,0.0443 0.44359,0.18902 0.0901,0.0454 0.16898,0.11005 0.25347,0.16508 0.52039,0.31959 1.105,0.42129 1.70177,0.47846 0.24838,0.0151 0.37259,0.042 0.61648,-0.0178 0.27591,-0.0676 0.54195,-0.24843 0.79784,-0.36691 -1.04635,0.59573 -2.0927,1.19146 -3.13905,1.78719 9.57165,-5.47951 0.69189,-0.38863 0.51925,-0.29088 -0.0843,0.0477 0.16292,-0.10478 0.2428,-0.15952 0.22028,-0.15097 0.43355,-0.31047 0.64158,-0.47769 0.42346,-0.27947 0.56669,-0.77018 0.80369,-1.19403 0.27114,-0.45808 0.32605,-0.98864 0.44672,-1.49642 0.13781,-0.50823 0.1851,-1.03144 0.21558,-1.55499 0.0258,-0.68643 0.0239,-1.37354 0.0234,-2.06035 -0.002,-0.62486 -0.006,-1.24971 -0.007,-1.87457 0.004,-0.61244 0.001,-1.2249 1.2e-4,-1.83734 0.002,-0.61295 0.002,-1.22589 5.3e-4,-1.83884 -10e-4,-0.61067 0.002,-1.22133 5.3e-4,-1.83201 -0.004,-0.65952 0.002,-1.31898 0.006,-1.97849 0,-0.13098 0,-0.26196 0,-0.39295 0,0 3.5086,-1.78771 3.5086,-1.78771 v 0 c 0,0.13098 0,0.26196 0,0.39295 0.003,0.65757 0.01,1.3151 0.006,1.97268 -10e-4,0.61048 0.002,1.22094 5.3e-4,1.83142 -0.001,0.61273 -0.001,1.22545 5.3e-4,1.83818 -0.001,0.61217 -0.004,1.22436 7.9e-4,1.83653 -7.9e-4,0.62667 -0.003,1.25334 -0.003,1.88001 5.3e-4,0.69014 0.005,1.38039 -0.007,2.07046 -0.0134,0.54521 -0.0478,1.0921 -0.17743,1.62396 -0.13396,0.53089 -0.18321,1.08065 -0.40285,1.58662 -0.11455,0.22126 -0.26794,0.42796 -0.36245,0.65877 -0.0831,0.20286 -0.0827,0.33082 -0.20764,0.51586 -0.045,0.0667 -0.11123,0.11631 -0.16684,0.17447 -0.29593,0.21316 -0.56238,0.4878 -0.87638,0.67409 -0.14365,0.0852 -8.72108,5.05511 -0.51604,0.30058 -1.21544,0.69497 -2.42515,1.40004 -3.6463,2.0849 -0.47441,0.26607 -1.01454,0.28832 -1.54008,0.21349 -0.6377,-0.0934 -1.24856,-0.26388 -1.80017,-0.61048 -0.50319,-0.26812 -0.96055,-0.53244 -1.3049,-1.00649 -0.39554,-0.53892 -0.51942,-1.17452 -0.73143,-1.79914 -0.30756,-0.95173 -0.34001,-1.70116 -0.29518,-2.698 -0.002,-0.93043 -0.005,-1.86081 -0.002,-2.79124 -1.7e-4,-0.85402 -0.006,-1.70802 -0.007,-2.56204 2.6e-4,-0.65862 -0.008,-1.31717 -0.003,-1.9758 2.6e-4,-0.60762 -0.004,-1.21522 1.7e-4,-1.82283 0.002,-0.69356 7.9e-4,-1.38712 0.007,-2.08065 0.007,-0.94764 0.0177,-1.89569 -0.0114,-2.84307 0,0 3.52732,-1.79726 3.52732,-1.79726 z"
       inkscape:connector-curvature="0" />
    <path
       style="opacity:0.72000002;fill:#0000ff;fill-opacity:1;stroke:#008000;stroke-width:0.26499999;stroke-miterlimit:4;stroke-dasharray:none;stroke-opacity:1"
       id="path50"
       d="m 172.39786,133.6835 c -0.66984,-0.60703 -1.45361,-0.96307 -2.32501,-1.15839 -0.88235,-0.18476 -1.74913,0.0734 -2.59011,0.32305 -0.31781,0.14102 -0.62875,0.27243 -0.9337,0.43818 -0.0861,0.0468 -0.34652,0.18269 -0.26143,0.13416 3.25494,-1.85657 3.98094,-2.59582 2.89712,-1.54727 -0.45291,0.52021 -0.7149,1.16381 -0.96619,1.79762 -0.46542,1.04216 -0.75881,2.14922 -1.04159,3.25185 -0.41215,1.19813 -0.71553,2.41437 -0.87358,3.67098 -0.11966,1.11562 -0.12435,2.23896 -0.12793,3.35964 -0.007,1.11839 -1e-4,2.23678 0.003,3.35516 0.0211,0.88968 -0.0247,1.78289 0.0377,2.671 0.0481,0.63585 0.26241,1.23667 0.52309,1.81297 0.34586,0.79467 0.68783,1.17295 1.38415,1.66902 0.80662,0.45245 1.67745,0.66931 2.58576,0.78754 0.92168,0.0908 1.84914,0.0887 2.77428,0.0854 0.67735,-0.004 1.35469,-0.008 2.03205,-0.0114 0.33565,0.004 0.70367,-0.0498 1.00981,-0.20101 0.0788,-0.0389 0.29969,-0.18401 0.22315,-0.14072 -1.05313,0.59566 -2.1021,1.19863 -3.15315,1.79794 0.57792,-0.41191 0.91984,-1.07947 1.23409,-1.70091 0.0418,-0.10662 0.0836,-0.21324 0.12539,-0.31986 0,0 3.57,-1.67395 3.57,-1.67395 v 0 c -0.0353,0.11993 -0.0705,0.23986 -0.10579,0.35978 -0.29543,0.6713 -0.67483,1.33347 -1.13907,1.89843 -1.76689,1.02567 -3.00875,2.33981 -4.96016,2.3037 -0.6744,0.001 -1.34881,0.005 -2.02321,0.002 -0.93324,-0.0107 -1.87014,-0.0204 -2.79714,-0.13862 -0.9518,-0.15903 -1.86994,-0.42836 -2.69814,-0.94083 -0.67698,-0.50645 -1.16123,-1.04975 -1.50223,-1.83331 -0.28303,-0.6146 -0.51527,-1.25979 -0.57772,-1.93808 -0.0865,-0.9003 -0.005,-1.80748 -0.0306,-2.71071 -5.3e-4,-1.1185 -0.002,-2.23697 -0.008,-3.35545 0.006,-1.13636 0.0162,-2.27421 0.11887,-3.40683 0.1528,-1.27074 0.39691,-2.51869 0.86272,-3.71695 0.25959,-1.10824 0.53654,-2.22708 0.98357,-3.27586 0.23624,-0.66476 0.49233,-1.3391 0.9019,-1.91814 1.03043,-1.4551 3.28422,-2.30209 5.05109,-2.96321 0.88952,-0.23333 1.79824,-0.39967 2.70682,-0.15502 0.90952,0.25522 1.71705,0.68834 2.44426,1.29738 0,0 -3.35443,2.09118 -3.35443,2.09118 z"
       inkscape:connector-curvature="0" />
    <path
       style="opacity:0.72000002;fill:#0000ff;fill-opacity:1;stroke:#008000;stroke-width:0.26499999;stroke-miterlimit:4;stroke-dasharray:none;stroke-opacity:1"
       id="path52"
       d="m 170.5579,123.9369 c 1.50579,0.0379 3.0123,0.0279 4.51841,0.0222 1.14919,-0.007 2.29833,-0.0119 3.44754,-0.009 1.5722,0.008 3.1444,0.015 4.71662,0.0165 1.62203,-0.002 3.24409,-0.003 4.86611,-0.0104 0.92018,-0.008 1.84037,-0.0113 2.76058,-0.0147 0.11166,-2.7e-4 0.22333,-8e-4 0.335,-0.001 0,0 -3.19308,2.31991 -3.19308,2.31991 v 0 c -0.11058,-2.7e-4 -0.22116,-8e-4 -0.33175,-10e-4 -0.90671,-0.003 -1.8134,-0.007 -2.72009,-0.0147 -1.61246,-0.008 -3.22495,-0.008 -4.83742,-0.0104 -1.58738,0.002 -3.17475,0.008 -4.76211,0.0165 -1.141,0.003 -2.28194,-0.002 -3.42293,-0.009 -1.52652,-0.006 -3.0534,-0.0149 -4.57962,0.0222 0,0 3.20274,-2.32692 3.20274,-2.32692 z"
       inkscape:connector-curvature="0" />
    <path
       style="opacity:0.72000002;fill:#0000ff;fill-opacity:1;stroke:#008000;stroke-width:0.26499999;stroke-miterlimit:4;stroke-dasharray:none;stroke-opacity:1"
       id="path54"
       d="m 180.3239,126.08882 c -0.0352,1.30351 -0.0301,2.60787 -0.0287,3.91177 0.009,1.28425 0.001,2.56854 0.006,3.85279 0.006,1.04802 0.005,2.09604 0.0103,3.14406 -0.004,0.9961 -0.006,1.99219 5.3e-4,2.98828 -0.005,0.88492 0.003,1.76984 0.003,2.65475 0.006,0.73693 0.002,1.47385 0.002,2.21078 7.9e-4,0.45078 0.003,0.90156 0.005,1.35234 0,0 -3.51963,1.79334 -3.51963,1.79334 v 0 c 0.002,-0.45236 0.004,-0.90472 0.005,-1.35709 2e-5,-0.73753 -0.004,-1.47506 0.002,-2.2126 1.7e-4,-0.88606 0.008,-1.77213 0.003,-2.65819 0.006,-0.9963 0.005,-1.9926 5.3e-4,-2.9889 0.005,-1.05154 0.004,-2.10307 0.0104,-3.1546 0.005,-1.28639 -0.002,-2.5728 0.006,-3.85919 0.001,-1.29413 0.007,-2.58876 -0.0287,-3.88249 0,0 3.52299,-1.79505 3.52299,-1.79505 z"
       inkscape:connector-curvature="0" />
    <path
       style="opacity:0.72000002;fill:#0000ff;fill-opacity:1;stroke:#008000;stroke-width:0.26499999;stroke-miterlimit:4;stroke-dasharray:none;stroke-opacity:1"
       id="path56"
       d="m 187.5197,135.15019 c -0.0325,1.12478 -0.0241,2.25027 -0.0157,3.37534 0.002,0.96837 0.002,1.93675 0.003,2.90512 -0.002,0.90934 -8e-4,1.81864 0.005,2.72796 2.6e-4,0.84838 -0.003,1.69673 -0.004,2.54511 -0.002,0.86105 5.3e-4,1.72208 0.006,2.58313 0.006,0.67694 10e-4,1.35389 10e-4,2.03084 -0.0189,0.97163 -0.0117,1.94341 -0.005,2.91511 0.004,0.70103 0.005,1.40208 0.008,2.10312 0.004,0.59739 -2.6e-4,1.19476 -2e-4,1.79215 1.4e-4,0.10207 2.7e-4,0.20414 5.3e-4,0.30621 0,0 -3.52034,1.7937 -3.52034,1.7937 v 0 c 1.4e-4,-0.10221 2.7e-4,-0.20442 5.3e-4,-0.30663 1.7e-4,-0.59732 -0.004,-1.19463 -2e-4,-1.79195 0.003,-0.70367 0.004,-1.40735 0.008,-2.11101 0.007,-0.97014 0.0145,-1.94036 -0.005,-2.91042 -1.8e-4,-0.67727 -0.005,-1.35456 0.001,-2.03182 0.005,-0.863 0.008,-1.72596 0.006,-2.58897 -0.001,-0.84701 -0.004,-1.69401 -0.004,-2.54103 0.006,-0.91098 0.007,-1.82195 0.005,-2.73295 0.002,-0.96953 0.001,-1.93908 0.003,-2.90862 0.008,-1.11973 0.0171,-2.2399 -0.0157,-3.35933 0,0 3.523,-1.79506 3.523,-1.79506 z"
       inkscape:connector-curvature="0" />
    <path
       style="opacity:0.72000002;fill:#0000ff;fill-opacity:1;stroke:#008000;stroke-width:0.26499999;stroke-miterlimit:4;stroke-dasharray:none;stroke-opacity:1"
       id="path58"
       d="m 207.06205,131.6483 c -0.665,-0.42645 -1.44236,-0.56755 -2.17476,-0.82126 -0.45417,-0.31095 -0.94846,-0.45022 -1.48664,-0.52245 -0.55646,-0.0549 -1.11663,-0.0505 -1.67516,-0.0515 -0.71096,-0.0373 -1.11567,-0.008 -1.76225,0.29044 5.66742,-3.65767 2.9283,-1.64508 1.68945,-0.67561 -0.43807,0.36487 -0.93592,0.64785 -1.37323,1.01171 -0.47301,0.39733 -0.8405,0.8731 -1.19272,1.37426 -0.45712,0.44429 -0.83847,0.92305 -1.12487,1.4938 -0.18391,0.45441 -0.52442,0.8063 -0.70018,1.26291 -0.16703,0.47032 -0.29362,0.94616 -0.35892,1.44091 -0.0859,0.52004 -0.33292,0.98522 -0.45246,1.49914 -0.15588,0.60912 -0.26269,1.22621 -0.50584,1.80774 -0.30076,0.55661 -0.51323,1.13984 -0.62379,1.76142 -0.0777,0.59533 -0.0771,1.19697 -0.0783,1.79624 -0.007,0.60922 -0.0437,1.20738 0.12813,1.79622 0.19018,0.59735 0.33113,1.20977 0.47475,1.81996 0.0811,0.55569 0.36727,1.03897 0.52525,1.57316 0.14468,0.48528 0.36205,0.96096 0.79184,1.24832 0.0778,0.0348 0.1534,0.0748 0.23324,0.10447 0.27619,0.10281 0.24409,0.0441 0.50965,0.18639 0.20955,0.11229 0.39306,0.25602 0.60827,0.36104 0.47082,0.33494 0.9261,0.70223 1.43294,0.98194 0.48963,0.27588 0.83902,0.70815 1.37569,0.8995 0.67014,0.12787 1.03331,0.19736 1.58813,0.61404 0.49863,0.42194 1.08904,0.71562 1.64061,1.06451 0.45438,0.35873 1.00985,0.53022 1.52277,0.77905 0.39266,0.38102 0.78984,0.69138 1.32306,0.82985 0.55798,0.0952 1.12831,0.0867 1.69271,0.0879 0.61016,-0.002 1.22031,-0.004 1.83046,-0.006 0.6117,0.002 1.20894,0.044 1.7964,-0.14628 0.53673,-0.26821 1.09911,-0.46466 1.64753,-0.70282 0.34296,-0.14413 0.74576,-0.0763 1.07941,-0.24332 0.13136,-0.0657 0.2423,-0.16642 0.36785,-0.2427 1.32627,-0.58345 0.36127,-0.16719 -3.0309,1.76107 -0.0579,0.0329 0.11157,-0.0729 0.16801,-0.10832 0.19606,-0.12304 0.29444,-0.20507 0.4154,-0.40565 0.19148,-0.50836 0.32138,-1.0361 0.4039,-1.57226 0.0707,-0.59785 0.076,-1.20069 0.0804,-1.8019 0.007,-0.61636 0.002,-1.23279 -1.7e-4,-1.84917 5.3e-4,-0.61358 5.3e-4,-1.22715 -7.9e-4,-1.84074 -0.003,-0.59743 10e-4,-1.19484 7.9e-4,-1.79227 -0.003,-0.60431 -7.9e-4,-1.2086 2.7e-4,-1.81291 5.3e-4,-0.60451 -0.004,-1.20901 -5.3e-4,-1.81351 0.0364,-0.64181 -0.0302,-1.27366 -0.10593,-1.90924 -0.0626,-0.67131 -0.20979,-1.33132 -0.39526,-1.97833 -0.14467,-0.63276 -0.4207,-1.22111 -0.60957,-1.84021 -0.18178,-0.46728 -0.49856,-0.82977 -0.79525,-1.21775 -0.30578,-0.35608 -0.58538,-0.73054 -0.93093,-1.05048 -0.30429,-0.39942 -0.66263,-0.74235 -0.93932,-1.16327 -0.34034,-0.56561 -0.72325,-1.10606 -1.19628,-1.56789 -0.60225,-0.33013 -1.03914,-0.86906 -1.60289,-1.25005 -0.48581,-0.22965 -1.02483,-0.35246 -1.55024,-0.46861 -0.33548,-0.055 -0.16738,-0.0316 -0.5043,-0.0702 0,0 3.23475,-2.28082 3.23475,-2.28082 v 0 c 0.35138,0.0596 0.1762,0.0256 0.52551,0.10211 0.55942,0.14798 1.14303,0.26905 1.62855,0.5989 0.55675,0.42164 1.04205,0.93068 1.63386,1.30861 0.47524,0.49416 0.8858,1.04309 1.24169,1.62938 0.26564,0.39164 0.61953,0.70889 0.9041,1.08608 0.343,0.34574 0.64711,0.72272 0.95767,1.09701 0.34062,0.42043 0.64591,0.85007 0.85992,1.35385 0.17638,0.62503 0.46481,1.20913 0.61139,1.8428 0.18935,0.66665 0.34997,1.34461 0.41681,2.03589 0.084,0.64933 0.18264,1.29098 0.13545,1.94887 0.003,0.60468 -10e-4,1.20936 -5.3e-4,1.81405 0.001,0.6042 0.003,1.20839 2.7e-4,1.8126 -1.9e-4,0.59709 0.004,1.19416 0.001,1.79125 -0.001,0.61323 -8e-4,1.22645 0.002,1.83967 -2.4e-4,0.61724 -0.001,1.2345 0.003,1.85173 -0.004,0.61539 -0.0104,1.23148 -0.0624,1.84506 -0.0564,0.5707 -0.19716,1.11606 -0.34656,1.66765 -0.10338,0.34255 -0.17088,0.54522 -0.48667,0.72818 -3.6251,2.10025 -2.35906,1.41137 -3.75228,2.16697 -0.46613,0.22886 -0.99607,0.22905 -1.46566,0.45442 -0.54914,0.23848 -1.11534,0.44778 -1.68083,0.6416 -0.61376,0.10118 -1.23282,0.0715 -1.85314,0.0741 -0.6117,0.002 -1.2234,0.008 -1.83509,0.003 -0.59212,-0.0104 -1.1973,-0.009 -1.76879,-0.18325 -0.51324,-0.20049 -0.91641,-0.53165 -1.34267,-0.87243 -0.53737,-0.2377 -1.08072,-0.46588 -1.55233,-0.82489 -0.54923,-0.3608 -1.14338,-0.65123 -1.64858,-1.07592 -0.47593,-0.30184 -1.01942,-0.36615 -1.54598,-0.54703 -0.51275,-0.2547 -0.90445,-0.66209 -1.40247,-0.94112 -0.48751,-0.30484 -0.94273,-0.6583 -1.43188,-0.96116 -0.45311,-0.25787 -0.91563,-0.47666 -1.37966,-0.7113 -0.4596,-0.38605 -0.74777,-0.89158 -0.91722,-1.46772 -0.15084,-0.54487 -0.46196,-1.0269 -0.53264,-1.59364 -0.1337,-0.60311 -0.28391,-1.20401 -0.46295,-1.79489 -0.0489,-0.15574 -0.15928,-0.48484 -0.17993,-0.64354 -0.0535,-0.4114 0.0389,-0.84185 -0.006,-1.25487 7.9e-4,-0.61633 0.002,-1.23374 0.0574,-1.8481 0.074,-0.65831 0.25224,-1.28818 0.57872,-1.86958 0.0979,-0.18498 0.21165,-0.37491 0.27005,-0.57859 0.10684,-0.37261 0.11845,-0.77682 0.26757,-1.14034 0.0981,-0.55079 0.23428,-0.9623 0.46344,-1.46459 0.0471,-0.5124 0.12551,-1.02204 0.33062,-1.49857 0.11355,-0.57933 0.37031,-0.8459 0.68355,-1.32048 0.2415,-0.59787 0.55301,-1.18759 1.08195,-1.57773 0.40357,-0.46798 0.65867,-1.05357 1.17803,-1.42497 0.40043,-0.46131 0.90072,-0.66625 1.34413,-1.072 0.28898,-0.17775 0.50668,-0.38597 0.76624,-0.6013 1.30565,-1.08318 2.77848,-1.82392 4.32733,-2.60776 0.60693,-0.19715 1.22008,-0.19508 1.85425,-0.174 0.57376,0.004 1.15077,0.004 1.71815,0.10129 0.53989,0.11141 1.03182,0.31047 1.51354,0.5773 0.76166,0.24479 1.52808,0.4784 2.22721,0.87968 0,0 -3.31891,2.15743 -3.31891,2.15743 z"
       inkscape:connector-curvature="0" />
    <path
       style="opacity:0.72000002;fill:#0000ff;fill-opacity:1;stroke:#008000;stroke-width:0.26499999;stroke-miterlimit:4;stroke-dasharray:none;stroke-opacity:1"
       id="path60"
       d="m 219.91242,162.85104 c -0.39677,-1.32445 -0.50397,-2.70943 -0.60696,-4.08126 -0.0919,-1.55915 -0.0904,-3.12188 -0.10543,-4.68313 -0.005,-1.27087 -0.006,-2.54181 -0.005,-3.81269 0.0441,-1.18304 -0.041,-2.35727 -0.2241,-3.52512 -0.20293,-1.15062 -0.25111,-2.31508 -0.27873,-3.48033 -0.0351,-1.34093 0.0555,-2.67875 -0.19624,-4.00169 -0.20516,-1.23506 -0.82609,-2.33509 -1.3074,-3.47469 -0.35385,-0.96397 -0.56013,-1.97066 -0.63969,-2.99233 -0.0439,-0.736 -0.0488,-1.47365 -0.0437,-2.21071 0.004,-0.61836 0.004,-1.23672 0.004,-1.85508 0.005,-0.61446 0.003,-1.22894 0.002,-1.84341 -0.0341,-2.32564 0.13215,-1.27617 3.61111,-3.22675 0.63084,0.19678 1.09364,0.60363 1.58627,1.02231 0.6132,0.39005 1.07224,0.92751 1.4787,1.51892 0.37407,0.64625 0.56605,1.36462 0.74865,2.08159 0.13131,0.68347 0.5171,1.27204 0.80348,1.89565 0.21779,0.693 0.38533,1.40333 0.558,2.10929 0.32087,1.18812 0.57867,2.39267 0.90885,3.57869 0.37126,1.03968 0.5394,2.15649 0.99014,3.16567 0.41859,0.6928 0.72936,1.42005 0.92931,2.20405 0.11748,0.64356 0.27468,1.27968 0.48806,1.89811 0.23814,0.69096 0.3695,1.40562 0.60587,2.09824 0.32026,0.72265 0.64021,1.44761 0.90876,2.19137 0.24655,0.62451 0.48445,1.25143 0.65171,1.9022 0.16512,0.47023 0.29945,0.94882 0.45043,1.4233 0.16551,0.4961 0.33079,0.96673 0.67725,1.36595 0.41794,0.40842 0.61294,0.91302 0.80083,1.45176 0.16159,0.49768 0.37538,0.98782 0.65591,1.43052 0.25751,0.60813 0.62632,1.15249 0.9789,1.70897 0.44325,0.56907 0.83544,1.17361 1.31247,1.71513 0.51125,0.497 0.78956,1.15977 1.22549,1.71587 0.37414,0.49724 0.61989,1.08132 1.09579,1.49497 0.054,0.0194 0.10463,0.0608 0.16196,0.0583 0.04,-0.002 0.13339,-0.0886 0.098,-0.0697 -1.1217,0.59917 -2.24478,1.19595 -3.35788,1.81093 -0.0262,0.0145 0.0796,0.023 0.0895,-0.005 0.0245,-0.0693 -0.0551,-0.55407 -0.0558,-0.55907 -0.15838,-0.8316 -0.39578,-1.64098 -0.67101,-2.4403 -0.23805,-0.65686 -0.44279,-1.31874 -0.56668,-2.00695 -0.10049,-0.61166 -0.10305,-1.23229 -0.10943,-1.85029 0.0679,-0.75055 -0.0862,-1.042 -0.36185,-1.70212 -0.24593,-0.59585 -0.35087,-1.22892 -0.40806,-1.86675 -0.0406,-0.63681 -0.0157,-1.27521 -0.052,-1.91193 -0.11121,-0.8564 -0.16127,-1.71716 -0.19721,-2.57938 -0.0259,-1.03282 -0.0261,-2.06605 -0.0346,-3.09912 -0.003,-0.7642 -0.22724,-1.49468 -0.36864,-2.23826 -0.12717,-0.78161 -0.15229,-1.57696 -0.16246,-2.36761 -0.007,-0.73784 -0.0144,-1.47573 -0.0113,-2.21361 0.0434,-0.62111 -0.061,-1.22978 -0.14933,-1.84121 -0.0489,-0.67006 -0.12817,-1.33443 -0.21758,-2.00008 -0.0912,-0.66451 -0.13394,-1.33385 -0.15699,-2.00375 -0.0101,-0.62115 -0.0112,-1.2424 -0.012,-1.86362 0.002,-0.61279 0.003,-1.22558 0.002,-1.83838 0.0148,-0.68105 -0.0181,-1.3637 0.0231,-2.04379 0.19743,-1.84169 2.36151,-2.79802 4.12667,-3.04677 0.61386,-0.0479 1.20909,-0.0756 1.79826,0.11867 0.73027,0.17931 1.18561,0.40033 1.65041,1.00571 0.29888,0.45103 0.61441,0.88836 0.86951,1.36612 0,0 -3.42893,1.96221 -3.42893,1.96221 v 0 c -0.23916,-0.45987 -0.54601,-0.87497 -0.83476,-1.30457 -0.39196,-0.48873 -0.91626,-0.64808 -1.51191,-0.78973 -0.55428,-0.10421 -1.13626,-0.078 -1.68312,0.0605 -1.32628,0.61846 -0.0375,0.025 3.01197,-1.80146 0.055,-0.033 -0.12263,0.0422 -0.17609,0.0777 -0.20552,0.13634 -0.25107,0.36753 -0.28273,0.59481 -0.10289,0.66225 -0.0175,1.33869 -0.0411,2.00662 -10e-4,0.61266 -0.002,1.2253 -10e-4,1.83795 -0.002,0.61791 -0.006,1.23593 0.006,1.85376 0.0137,0.65864 0.0412,1.31769 0.12701,1.97152 0.0914,0.66388 0.19563,1.3227 0.22828,1.99302 0.0843,0.62972 0.21505,1.25485 0.1676,1.89404 5.3e-4,0.73745 -0.0111,1.47491 -0.002,2.21235 0.0155,0.76958 0.0202,1.54314 0.14012,2.30537 0.13794,0.76902 0.37153,1.52197 0.38652,2.30944 -0.006,1.02888 -0.005,2.05803 0.0276,3.08653 0.0295,0.85415 0.082,1.70739 0.20365,2.5541 0.0739,0.6345 0.0244,1.27296 0.0636,1.91047 0.0388,0.59921 0.11436,1.19736 0.3416,1.7587 0.29128,0.68811 0.52177,1.04823 0.4369,1.83685 0.003,0.59892 0.005,1.19994 0.0802,1.79511 0.10335,0.67353 0.30102,1.31497 0.52613,1.95689 0.27271,0.82118 0.51483,1.64952 0.70901,2.49321 0.0124,0.0668 0.22354,0.93923 0.18505,0.96424 -2.04054,1.32664 -2.62817,2.72074 -3.97284,1.72015 -0.44608,-0.46634 -0.76621,-1.01369 -1.12282,-1.54659 -0.42303,-0.55535 -0.70073,-1.2084 -1.20836,-1.69785 -0.48638,-0.55879 -0.88885,-1.17878 -1.33324,-1.77091 -0.35968,-0.5538 -0.74972,-1.08876 -1.00529,-1.70018 -0.28828,-0.47179 -0.52563,-0.98112 -0.69072,-1.50898 -0.17815,-0.49658 -0.34469,-0.95228 -0.73825,-1.32745 -0.35962,-0.45179 -0.57053,-0.95217 -0.75324,-1.49656 -0.15568,-0.48348 -0.289,-0.97148 -0.45366,-1.45279 -0.14965,-0.6438 -0.38986,-1.25623 -0.62917,-1.87127 -0.25366,-0.75035 -0.57101,-1.47982 -0.90872,-2.19572 -0.2331,-0.69192 -0.38572,-1.39816 -0.60715,-2.09215 -0.22557,-0.62778 -0.40291,-1.27548 -0.50446,-1.9354 -0.17326,-0.77043 -0.4829,-1.46719 -0.88275,-2.14709 -0.45957,-1.03019 -0.61395,-2.17211 -0.97991,-3.23756 -0.33005,-1.18551 -0.61794,-2.3822 -0.95815,-3.56436 -0.17227,-0.68172 -0.34934,-1.3633 -0.53575,-2.04075 -0.28566,-0.64792 -0.68954,-1.25402 -0.82895,-1.95736 -0.17882,-0.67083 -0.32443,-1.35465 -0.68889,-1.9576 -0.38776,-0.56192 -0.833,-1.05656 -1.41083,-1.43368 -0.40351,-0.32829 -0.8654,-0.77799 -1.4279,-0.72548 1.08819,-0.65159 2.18435,-1.29005 3.26458,-1.95476 0.0336,-0.0206 -0.0873,-0.008 -0.11682,0.0178 -0.036,0.0318 -0.0476,0.0858 -0.0547,0.13334 -0.0418,0.27876 0.0271,0.57126 -0.002,0.85116 -0.001,0.61454 -0.004,1.2291 -2.6e-4,1.84364 -0.002,0.61989 -0.007,1.23977 -0.0107,1.85966 -0.002,0.7301 -0.0182,1.46068 0.0169,2.19032 0.0657,0.98402 0.21216,1.96282 0.55743,2.89229 0.48417,1.16605 1.11398,2.29157 1.34183,3.54636 0.11121,0.55362 0.1661,0.72488 0.19619,1.29679 0.0484,0.91964 -0.032,1.8461 0.0231,2.76615 0.0341,1.14657 0.0868,2.29408 0.27282,3.42804 0.17878,1.18694 0.29637,2.37913 0.24532,3.5818 -0.002,1.27305 -0.009,2.54611 -0.0116,3.81916 -0.006,1.55486 -5.3e-4,3.11079 0.0851,4.66375 0.0894,1.32802 0.17998,2.6792 0.62092,3.94584 0,0 -3.45827,1.92135 -3.45827,1.92135 z"
       inkscape:connector-curvature="0" />
    <path
       style="opacity:0.72000002;fill:#0000ff;fill-opacity:1;stroke:#008000;stroke-width:0.26499999;stroke-miterlimit:4;stroke-dasharray:none;stroke-opacity:1"
       id="path62"
       d="m 34.009713,71.225274 c 0.743628,-0.410969 1.554247,-0.622279 2.3857,-0.760034 0.648079,-0.09447 1.303698,-0.103994 1.957287,-0.102912 0.754579,-0.03869 1.258007,0.173035 1.816368,0.661762 0.537199,0.408453 1.053933,0.816309 1.41039,1.396437 0.184648,0.516215 0.533821,0.938731 0.746554,1.439992 0.192373,0.539705 0.195167,1.118994 0.210653,1.685001 0.0028,0.834988 -0.0068,1.669997 -0.007,2.505007 -0.01093,0.718616 0.03341,1.438645 -0.01783,2.155893 -0.08172,0.608103 -0.161721,1.215597 -0.204748,1.827829 -0.03802,0.609936 -0.037,1.221436 -0.03777,1.832298 -0.0021,0.613106 -0.0013,1.226204 2.65e-4,1.839309 0.0052,0.623298 -0.0021,1.246564 -0.0033,1.86985 0.0027,0.730674 -0.0028,1.461318 -7.94e-4,2.191991 5.29e-4,0.686062 0.0016,1.372121 0.004,2.058183 0.0021,0.614937 -7.94e-4,1.22986 2.64e-4,1.8448 0.0031,0.591944 7.94e-4,1.183873 -5.29e-4,1.775812 -0.02156,0.550367 -0.0259,1.071096 0.167233,1.58968 0.188227,0.564896 0.233013,1.154438 0.546976,1.668864 0.403793,0.56034 0.63719,1.218915 1.016193,1.793194 0.337166,0.50726 0.610354,1.05263 0.979789,1.53784 0.546349,0.58895 1.080116,1.20463 1.707957,1.70871 0.656023,0.46972 1.290521,0.96703 1.932082,1.4578 0.558062,0.46102 1.143514,0.87868 1.77727,1.22811 0.555032,0.23681 1.054034,0.58193 1.616935,0.80054 0.60103,0.11109 1.147284,0.38488 1.735291,0.55057 0.587904,0.14728 1.196901,0.15658 1.799365,0.16845 0.591722,0.005 1.183489,0.002 1.775227,0.001 0.104738,-2.6e-4 0.209915,0.009 0.314211,-7.9e-4 0.174837,-0.0161 0.348507,-0.0668 0.500171,-0.15671 0.08884,-0.0526 0.339953,-0.23356 0.249696,-0.18339 -2.994756,1.66487 -4.024054,2.51264 -2.814368,1.54332 0.539954,-0.43971 1.005919,-0.90676 1.355349,-1.50961 0.285126,-0.42237 0.393237,-0.8954 0.44913,-1.39276 0.04124,-0.58611 0.03411,-1.17426 0.03181,-1.76142 0.0019,-0.61677 -0.0024,-1.23355 -0.0045,-1.85031 -0.0514,-0.62021 0.0843,-0.86781 0.422961,-1.34428 0.290422,-0.42828 0.290264,-0.88647 0.251089,-1.379803 -0.06039,-0.597926 -0.08084,-1.19726 -0.187909,-1.789192 -0.124198,-0.609576 -0.169059,-1.231143 -0.200017,-1.851276 -0.0217,-0.750996 -0.01765,-1.502841 -0.01233,-2.25412 0.0016,-0.922115 0.0056,-1.844202 0.0011,-2.766314 0.04206,-0.927603 -0.09969,-1.844707 -0.328496,-2.74134 -0.16292,-0.725903 -0.451821,-1.411788 -0.616942,-2.137328 -0.115684,-0.562282 -0.09618,-1.135946 -0.195387,-1.700257 -0.117353,-0.534043 -0.158517,-1.077458 -0.181433,-1.622238 -0.01947,-0.59868 -0.02336,-1.197774 -0.02021,-1.796722 5.29e-4,-0.659193 0.0016,-1.318379 0.005,-1.977564 7.94e-4,-0.65627 -0.0024,-1.312535 -0.0042,-1.968802 0.0037,-0.619297 0.0011,-1.23861 -1.27e-4,-1.857909 0.0099,-0.619138 -0.01953,-1.239428 0.02318,-1.857394 0.08595,-0.43421 0.02201,-0.21822 0.197328,-0.646308 0,0 3.601974,-1.6174 3.601974,-1.6174 v 0 c -0.224723,0.317664 -0.139567,0.147957 -0.259577,0.507036 -0.08904,0.601308 -0.02127,1.213155 -0.04057,1.819347 -0.0013,0.619352 -0.0038,1.238716 -1.24e-4,1.858063 -0.0019,0.657889 -0.0052,1.315775 -0.0049,1.97367 0.0028,0.657944 0.0024,1.315884 0.0019,1.973831 0.0032,0.594095 -0.0024,1.18832 0.01418,1.782273 0.01953,0.526553 0.05163,1.053589 0.161001,1.570553 0.104773,0.561928 0.107456,1.126559 0.185574,1.692058 0.142941,0.727848 0.422452,1.413645 0.588391,2.13563 0.230875,0.922454 0.419327,1.871842 0.37661,2.826128 -0.0052,0.92225 -0.0027,1.844487 -0.0024,2.766748 0.0053,0.743066 0.0013,1.486276 0.024,2.229117 0.02164,0.603134 0.05452,1.208297 0.175408,1.801159 0.115491,0.603274 0.149955,1.209135 0.203692,1.820688 0.06127,0.552458 0.122468,1.082696 -0.13231,1.602473 -0.05801,0.113323 -0.139261,0.295854 -0.233005,0.390213 -0.04116,0.0414 -0.106392,0.0533 -0.147066,0.0952 -0.171747,0.17691 -0.146,0.44657 -0.144307,0.6689 -5.29e-4,0.61637 -0.0016,1.23277 0.0053,1.84911 0.0016,0.59695 0.005,1.19416 -0.01699,1.79082 -0.02725,0.54125 -0.09266,1.08106 -0.372528,1.55799 -0.242039,0.38935 -0.414944,0.80892 -0.754965,1.13138 -0.08907,0.0845 -0.196609,0.14735 -0.289624,0.22745 -0.09532,0.0821 -0.183218,0.17244 -0.274828,0.25866 -1.220417,1.2748 -0.267443,0.32627 -3.910269,2.42926 -0.359968,0.20781 -0.785894,0.18341 -1.184296,0.18454 -0.594566,0.002 -1.189312,0.008 -1.783688,-0.0116 -0.626364,-0.0262 -1.25784,-0.0614 -1.859455,-0.25417 -0.588986,-0.19262 -1.168461,-0.41149 -1.763519,-0.58262 -0.555895,-0.25683 -1.077897,-0.57962 -1.630622,-0.84348 -0.641694,-0.36848 -1.227444,-0.81581 -1.80245,-1.28043 -0.637665,-0.50001 -1.292783,-0.97443 -1.932056,-1.47087 -0.640226,-0.5358 -1.208382,-1.15952 -1.764194,-1.78113 -0.376984,-0.49262 -0.679284,-1.03237 -1.003274,-1.56011 -0.369541,-0.58401 -0.615897,-1.23745 -1.019111,-1.80193 -0.332137,-0.53905 -0.430089,-1.124104 -0.594495,-1.727219 -0.238729,-0.618823 -0.261284,-1.05864 -0.225918,-1.720884 -0.0011,-0.591789 -0.0036,-1.183566 -5.29e-4,-1.775357 0.0011,-0.615035 -0.0019,-1.230051 2.65e-4,-1.845083 0.0024,-0.687429 0.0035,-1.374857 0.004,-2.062286 0.0019,-0.730343 -0.0036,-1.460656 -0.0011,-2.191002 -0.0013,-0.621868 -0.0086,-1.243716 -0.0044,-1.865598 7.93e-4,-0.61327 -5.29e-4,-1.226529 -0.0021,-1.839788 0.0021,-0.617971 0.0052,-1.236046 0.02566,-1.853737 0.03641,-0.617617 0.10401,-1.231966 0.204933,-1.842582 0.0899,-0.705173 0.0222,-1.421384 0.05143,-2.130676 0.0032,-0.828667 0.0033,-1.657406 -0.0093,-2.485999 -0.0086,-0.518864 -0.0024,-1.049814 -0.151308,-1.551686 -0.191804,-0.485823 -0.53845,-0.889616 -0.701616,-1.390613 -0.337617,-0.539734 -0.857584,-0.891302 -1.346147,-1.286073 -0.518951,-0.404591 -1.011632,-0.464236 -1.6612,-0.432308 -0.637442,0.01183 -1.277154,0.0308 -1.905328,0.151119 -0.817496,0.171469 -1.604407,0.439002 -2.321415,0.877149 0,0 3.077441,-2.489795 3.077441,-2.489795 z"
       inkscape:connector-curvature="0" />
    <path
       style="opacity:0.72000002;fill:#0000ff;fill-opacity:1;stroke:#008000;stroke-width:0.26499999;stroke-miterlimit:4;stroke-dasharray:none;stroke-opacity:1"
       id="path64"
       d="m 65.663637,112.1519 c 0.03274,-1.22726 0.03064,-2.45518 0.03017,-3.68278 0.0069,-1.11389 -0.01442,-2.22767 -0.0186,-3.34152 -0.0038,-0.66344 -0.0075,-1.32687 -0.0095,-1.99032 0.0013,-0.6032 0.0019,-1.20639 7.94e-4,-1.8096 -0.0066,-0.61985 -0.01365,-1.23716 0.06435,-1.852857 0.061,-0.669195 0.129452,-0.995333 0.535487,-1.529506 0.240813,-0.424352 0.433531,-0.884587 0.580491,-1.350513 0.111257,-0.576085 0.154762,-1.149865 0.324665,-1.714743 0.212717,-0.588409 0.29392,-1.20201 0.335698,-1.822437 0.04149,-0.867592 0.0417,-1.736497 0.04103,-2.604876 -2.64e-4,-0.931105 -0.0066,-1.862251 -0.0033,-2.793359 0.05927,-1.059876 -0.05279,-2.097887 -0.221541,-3.14189 -0.1558,-0.896197 -0.492249,-1.739194 -0.803233,-2.588326 -0.201506,-0.603854 -0.290232,-1.239089 -0.48111,-1.845884 -0.02809,-0.09319 -0.04745,-0.189474 -0.08426,-0.27958 -0.05524,-0.135234 -0.190294,-0.317439 -0.259231,-0.441418 -0.153484,-0.276034 -0.260016,-0.573693 -0.380182,-0.864841 -0.19431,-0.548658 -0.34915,-1.098092 -0.580173,-1.632466 -0.03324,-0.06551 -0.06225,-0.133347 -0.09972,-0.196532 -0.03544,-0.05976 -0.294971,-0.384244 -0.203772,-0.434494 3.505891,-1.93177 2.704881,-2.653678 3.776808,-1.568219 0.417179,0.458467 0.548931,1.073935 0.702318,1.656767 0.220266,0.764588 0.423834,1.5313 0.644374,2.296025 0.350544,0.922954 0.494869,1.898547 0.766504,2.843739 0.302122,1.096762 0.672113,2.162699 1.130143,3.20312 0.441286,0.762865 0.664165,1.608474 0.903066,2.4486 0.223739,0.726062 0.40233,1.468514 0.666056,2.181553 0.213329,0.672888 0.583557,1.278811 0.868572,1.921335 0.213487,0.587389 0.379203,1.190313 0.563266,1.787644 0.245716,0.548103 0.454917,1.119574 0.776928,1.62804 0.438414,0.630846 0.806712,1.306303 1.279361,1.913146 0.342188,0.518787 0.753377,0.982882 1.116372,1.485088 0.586446,0.700156 0.923512,1.553467 1.436653,2.301124 0.519869,0.68728 0.999974,1.39982 1.491385,2.10744 0.550918,0.65597 1.168096,1.25327 1.779529,1.85365 0.583221,0.56732 1.121836,1.17837 1.662742,1.78588 0.510363,0.546 1.202397,0.84512 1.771373,1.31877 0.612002,0.49132 1.315302,0.84539 1.953148,1.30079 0.762786,0.56552 1.472351,1.22431 2.365037,1.57798 1.434174,-0.17606 0.860351,-0.1314 -3.13577,1.77742 -0.05924,0.0283 -7.94e-4,-0.13296 -0.01924,-0.196 -0.05107,-0.17583 -0.115339,-0.34804 -0.187647,-0.51625 -0.0622,-0.14471 -0.587198,-1.19866 -0.642798,-1.31083 -0.633177,-1.33528 -1.337172,-2.6278 -1.753512,-4.05053 -0.273421,-1.04389 -0.490088,-2.10246 -0.724779,-3.15589 -0.141443,-1.00324 -0.522925,-1.9471 -0.845838,-2.90091 -0.309007,-1.043009 -0.705766,-2.055947 -1.090888,-3.072686 -0.272037,-0.874664 -0.549579,-1.746567 -0.716473,-2.648315 -0.110458,-0.694512 -0.106537,-1.400881 -0.113763,-2.102302 0.0047,-0.737124 0.0021,-1.474277 0.0054,-2.211403 0.0019,-0.718368 -0.0021,-1.436765 0.004,-2.155108 1.88e-4,-0.738664 -0.0019,-1.477317 -0.0026,-2.215978 -0.0055,-0.633725 -0.02447,-1.264045 0.06092,-1.893041 0.137322,-0.628288 0.26597,-1.260398 0.522931,-1.851774 0.251901,-0.593013 0.524957,-1.176655 0.877091,-1.717133 0.359111,-0.403338 0.615719,-0.859284 0.852344,-1.340088 0.177686,-0.417205 0.369144,-0.901006 0.786524,-1.140618 1.206426,-0.692592 2.426806,-1.360591 3.640212,-2.040888 0.356881,-0.06748 0.177411,-0.04014 0.538411,-0.082 0,0 -3.160067,2.382353 -3.160067,2.382353 v 0 c -0.33047,0.08156 -0.168634,0.03113 -0.485587,0.151029 1.052542,-0.612978 2.110187,-1.217273 3.157625,-1.838938 0.07485,-0.04442 -0.162462,0.06396 -0.238458,0.106386 -0.322517,0.180062 -0.545373,0.465614 -0.638284,0.822153 -0.224007,0.505201 -0.438756,1.006943 -0.818406,1.419042 -0.423302,0.466477 -0.659146,1.063175 -0.926553,1.62591 -0.07184,0.182584 -0.185944,0.346974 -0.254058,0.530982 -0.144645,0.390747 -0.142909,0.842615 -0.30974,1.229976 -0.09011,0.614241 -0.110984,1.224076 -0.0908,1.846112 -7.94e-4,0.739611 -0.0028,1.479214 -0.0028,2.218825 0.0059,0.717909 0.0013,1.435875 2.65e-4,2.1538 1.32e-4,0.735743 -0.0092,1.47147 -0.0036,2.207221 -2.4e-5,0.682455 -0.0031,1.367702 0.0828,2.045972 0.136138,0.886159 0.391141,1.742168 0.655634,2.59759 0.372327,1.024498 0.794788,2.030923 1.102329,3.077397 0.335841,0.964875 0.707818,1.929022 0.861711,2.943504 0.2263,1.04862 0.456435,2.09726 0.709673,3.13937 0.371488,1.41057 1.038024,2.70023 1.690963,3.99898 0.312147,0.61453 0.644387,1.2139 0.911161,1.84976 0.0717,0.17089 0.357558,0.40063 0.211182,0.51429 -2.981973,2.31545 -2.277649,2.47141 -3.794648,1.98116 -0.86631,-0.44388 -1.602775,-1.07197 -2.383931,-1.64545 -0.666617,-0.43122 -1.377058,-0.80082 -1.985221,-1.31641 -0.601316,-0.46017 -1.302814,-0.79324 -1.803112,-1.3778 -0.534069,-0.60296 -1.074698,-1.19997 -1.649338,-1.76448 -0.622382,-0.62139 -1.259769,-1.23347 -1.811851,-1.91883 -0.490265,-0.7092 -0.986618,-1.41199 -1.491004,-2.111 -0.50569,-0.7457 -0.847831,-1.58999 -1.437626,-2.28049 -0.380461,-0.489659 -0.787866,-0.95513 -1.123421,-1.479045 -0.460309,-0.627838 -0.839147,-1.308939 -1.291924,-1.94201 -0.344148,-0.537125 -0.581112,-1.133599 -0.831609,-1.719072 -0.17921,-0.584073 -0.361794,-1.166145 -0.541501,-1.749419 -0.2779,-0.654474 -0.65957,-1.263481 -0.882291,-1.940552 -0.262001,-0.725067 -0.434832,-1.480741 -0.67302,-2.213957 -0.222316,-0.827458 -0.434689,-1.657787 -0.856882,-2.411928 -0.450927,-1.060133 -0.847754,-2.133473 -1.145368,-3.248361 -0.287568,-0.940562 -0.44622,-1.910001 -0.785273,-2.835344 -0.226584,-0.765371 -0.440174,-1.531483 -0.664131,-2.297335 -0.134114,-0.509609 -0.233812,-1.068792 -0.613127,-1.458645 -1.26678,-1.162185 4.296402,-0.911556 3.151145,-2.224508 -0.0096,-0.01098 0.0039,0.02945 0.01072,0.04233 0.02694,0.05124 0.0629,0.0974 0.08973,0.148688 0.03672,0.07018 0.06711,0.143484 0.100669,0.215226 0.235458,0.536834 0.402542,1.081891 0.579678,1.640072 0.113691,0.270817 0.208976,0.550651 0.353028,0.807509 0.101129,0.180316 0.226595,0.34046 0.308713,0.532079 0.03754,0.08759 0.05522,0.182404 0.08282,0.273606 0.193943,0.602491 0.283882,1.234152 0.464455,1.840722 0.300157,0.879266 0.644814,1.747398 0.808884,2.6666 0.166495,1.060363 0.338733,2.111651 0.262478,3.190068 0.0047,0.931225 7.93e-4,1.862498 0.0029,2.793725 -8.5e-5,0.872173 0.01251,1.744835 -0.01434,2.616682 -0.03047,0.645551 -0.06617,1.29245 -0.285782,1.907561 -0.196472,0.59096 -0.284028,1.071674 -0.322408,1.694566 -0.116523,0.511916 -0.346943,0.976217 -0.531781,1.464874 -0.145584,0.261075 -0.09043,0.208825 -0.291864,0.404423 -0.05178,0.05028 -0.122865,0.08335 -0.161293,0.144436 -0.151389,0.240673 -0.07961,0.568021 -0.161959,0.827966 -0.09522,0.599517 -0.104045,1.194922 -0.08742,1.801911 -0.0011,0.602932 -5.29e-4,1.205852 7.94e-4,1.808782 -0.0019,0.66666 -0.0057,1.33331 -0.0095,1.99996 -0.0042,1.12017 -0.02543,2.24026 -0.0186,3.36047 -5.29e-4,1.21736 -0.0029,2.43504 0.03017,3.65204 0,0 -3.52732,1.79726 -3.52732,1.79726 z"
       inkscape:connector-curvature="0" />
    <path
       style="opacity:0.72000002;fill:#0000ff;fill-opacity:1;stroke:#008000;stroke-width:0.26499999;stroke-miterlimit:4;stroke-dasharray:none;stroke-opacity:1"
       id="path66"
       d="m 98.138246,105.11935 c -0.385149,-1.68159 -0.702011,-3.37962 -1.109745,-5.05637 -0.289454,-1.159392 -0.76767,-2.25332 -1.024686,-3.422355 -0.129196,-0.924497 -0.273777,-1.842796 -0.505322,-2.748238 -0.204446,-1.10759 -0.53467,-2.1781 -0.859266,-3.254555 -0.316167,-1.008655 -0.658535,-1.99971 -0.844622,-3.042202 -0.125931,-0.727748 -0.140168,-1.465266 -0.145608,-2.201453 -0.0031,-0.80736 0.0024,-1.614741 0.0108,-2.422057 0.01315,-1.071551 0.0034,-2.143156 0.0058,-3.214732 -2.64e-4,-0.878676 -0.242239,-1.724266 -0.370927,-2.586942 -0.188735,-1.744888 -0.37302,-3.488296 -0.507032,-5.238734 -0.110283,-1.412259 -0.159316,-2.827769 -0.1882,-4.24366 0.07205,-0.997548 -0.126926,-1.910509 -0.475173,-2.838183 -0.417889,-0.92266 -0.755672,-1.875232 -1.128821,-2.816201 -0.250741,-0.664909 -0.478647,-1.338199 -0.743104,-1.997705 0,0 3.428228,-1.911501 3.428228,-1.911501 v 0 c 0.254627,0.662422 0.478028,1.336056 0.731522,1.999105 0.388845,0.937855 0.72176,1.895202 1.129197,2.825591 0.381275,0.98761 0.650012,1.885053 0.546404,2.956941 7.94e-4,1.419257 0.02707,2.838786 0.112771,4.255746 0.116401,1.733949 0.320495,3.454564 0.569272,5.173308 0.128921,0.88252 0.378143,1.745681 0.386424,2.643791 0.0021,1.070633 -0.0083,2.141278 0.0013,3.211906 0.0051,0.803987 0.0024,1.60795 0.0013,2.411945 0.0047,0.717957 0.01228,1.438214 0.107526,2.151078 0.159602,1.032595 0.486963,2.014305 0.791867,3.011405 0.337756,1.076638 0.691271,2.144144 0.890005,3.257611 0.239511,0.909847 0.417142,1.829144 0.51154,2.765571 0.236003,1.174636 0.709074,2.271606 0.974374,3.437739 0.39305,1.683305 0.67134,3.392841 1.18348,5.047371 0,0 -3.479276,1.84578 -3.479276,1.84578 z"
       inkscape:connector-curvature="0" />
    <path
       style="opacity:0.72000002;fill:#0000ff;fill-opacity:1;stroke:#008000;stroke-width:0.26499999;stroke-miterlimit:4;stroke-dasharray:none;stroke-opacity:1"
       id="path68"
       d="m 87.406452,58.375184 c 0.882346,0.01717 1.764972,0.0097 2.647419,0.006 0.669583,-0.0035 1.339175,-0.0021 2.008764,-0.0034 0.607036,-0.0024 1.214064,2.33e-4 1.8211,3.7e-5 0.604285,-0.0019 1.208564,-5.29e-4 1.812846,1.48e-4 0.292457,-0.02061 0.599038,0.05121 0.882843,-0.05286 0.195366,-0.07164 0.379365,-0.215906 0.574747,-0.298024 0.528963,-0.153763 1.092067,-0.164031 1.639839,-0.176726 0.930492,-0.0065 1.84763,0.113038 2.72341,0.427069 0.85256,0.264798 1.59554,0.761114 2.38794,1.155129 0.69879,0.398975 1.3199,0.928915 1.92097,1.461836 0.64544,0.611695 1.2104,1.304456 1.8086,1.962338 0.52737,0.564975 0.82335,1.286324 1.23427,1.929698 0.46112,0.712973 0.86511,1.45719 1.27862,2.197275 0.29016,0.749715 0.74801,1.410465 1.12341,2.115955 0.4814,1.012402 0.84832,2.078826 1.21409,3.137882 0.33716,0.798398 0.47356,1.656193 0.71414,2.482823 0.11213,0.385265 0.25183,0.761971 0.37578,1.143598 0.37053,1.00535 0.70935,2.024597 0.92435,3.075064 0.1953,1.01912 0.22036,2.059289 0.24715,3.093469 0.0127,0.962133 0.007,1.924317 0.007,2.886482 -7.9e-4,0.876366 -0.002,1.752727 7.9e-4,2.629099 -0.002,0.722894 0.003,1.445778 0.006,2.168659 -0.008,0.700249 -0.003,1.400564 -5.3e-4,2.100832 7.9e-4,0.798242 0.007,1.593188 -0.0723,2.388065 -0.13594,0.679435 -0.25496,1.366915 -0.43339,2.03676 -0.17897,0.610516 -0.4825,1.167964 -0.77507,1.728282 -0.34607,0.830131 -0.96308,1.506276 -1.62815,2.095756 -1.40866,1.01724 -0.76841,0.5728 -4.02831,2.30415 -0.10767,0.0572 -0.24051,0.0446 -0.35618,0.0831 -0.32287,0.1076 -0.63263,0.27048 -0.956,0.38304 -0.69177,0.27444 -1.40785,0.51775 -2.14577,0.63496 -0.72632,0.0994 -1.43815,0.26971 -2.16803,0.35062 -0.63136,0.0471 -1.26471,0.053 -1.8975,0.0562 -0.601537,10e-4 -1.20306,-0.003 -1.8046,-0.003 -0.606637,10e-4 -1.213266,-0.002 -1.819902,-0.001 -0.605322,0.002 -1.210641,5.2e-4 -1.81596,-1.4e-4 -0.308981,-4e-5 -0.617958,5.3e-4 -0.926936,7.9e-4 0,0 3.19714,-2.32285 3.19714,-2.32285 v 0 c 0.308229,2.6e-4 0.616461,7.9e-4 0.924692,7.9e-4 0.605436,-5.3e-4 1.210866,-0.002 1.816304,-1e-5 0.607102,2.7e-4 1.214202,-0.002 1.821312,0.001 0.60145,0.002 1.2029,0.002 1.80435,-0.001 0.62332,-0.006 1.24842,-0.0143 1.86781,-0.0917 0.71685,-0.10002 1.42431,-0.25339 2.13946,-0.36459 0.72306,-0.17364 1.42655,-0.41723 2.11787,-0.69061 0.32208,-0.12411 0.64256,-0.24603 0.96802,-0.36083 0.10895,-0.0384 0.42396,-0.179409 0.32555,-0.118899 -1.78451,1.097199 -4.21848,2.440079 -2.713,1.607129 0.52272,-0.38373 1.23924,-1.04904 1.56133,-1.614696 0.0547,-0.09611 0.0755,-0.207907 0.11327,-0.311862 0.25496,-0.567886 0.63054,-1.076984 0.80824,-1.681641 0.2392,-0.629785 0.26932,-1.327312 0.47733,-1.970638 0.093,-0.779989 0.10319,-1.558372 0.0795,-2.343711 0.003,-0.700085 0.007,-1.40022 -5.3e-4,-2.100286 0.003,-0.725221 0.008,-1.450438 0.007,-2.175666 0.003,-0.878018 0.004,-1.75604 0.007,-2.634044 0.004,-0.959935 0.008,-1.919973 -10e-4,-2.879878 -0.0123,-1.01386 -0.0344,-2.032352 -0.20859,-3.033874 -0.20667,-1.037336 -0.53124,-2.047849 -0.8907,-3.041782 -0.12767,-0.390091 -0.27467,-0.774071 -0.38946,-1.168144 -0.23768,-0.815977 -0.35155,-1.669097 -0.69073,-2.455957 -0.35831,-1.038376 -0.74371,-2.074667 -1.21925,-3.064915 -0.37346,-0.704152 -0.83278,-1.362573 -1.12321,-2.109637 -0.39935,-0.738402 -0.79511,-1.477693 -1.26697,-2.174235 -0.39844,-0.625054 -0.68787,-1.323705 -1.19107,-1.87897 -0.58481,-0.651176 -1.1424,-1.332579 -1.79453,-1.918584 -0.57999,-0.508269 -1.17392,-1.01972 -1.8585,-1.38208 -0.772891,-0.393496 -1.509504,-0.864192 -2.349599,-1.111512 -0.861229,-0.260093 -1.763688,-0.34033 -2.662108,-0.29551 -0.532008,0.03375 -1.076661,0.0651 -1.564483,0.302188 -0.497076,0.224253 -1.000684,0.241512 -1.542889,0.211567 -0.604417,7.93e-4 -1.208831,0.0021 -1.81325,1.48e-4 -0.607068,-1.96e-4 -1.214134,0.0024 -1.821202,3.7e-5 -0.666488,-0.0011 -1.332976,1.35e-4 -1.999458,-0.0034 -0.88799,-0.0038 -1.776143,-0.01093 -2.664034,0.006 0,0 3.202738,-2.326926 3.202738,-2.326926 z"
       inkscape:connector-curvature="0" />
    <path
       style="opacity:0.72000002;fill:#0000ff;fill-opacity:1;stroke:#008000;stroke-width:0.26499999;stroke-miterlimit:4;stroke-dasharray:none;stroke-opacity:1"
       id="path70"
       d="m 135.13028,70.296507 c -0.84947,-0.01283 -1.69914,-0.0095 -2.54868,-0.0069 -0.17066,5.29e-4 -0.51412,-0.01805 -0.68968,0.05186 -0.0827,0.03292 -0.29265,0.201591 -0.2149,0.158334 5.53864,-3.081446 3.91842,-2.285399 2.76116,-1.544894 -7.93114,4.583509 -2.02911,1.16863 -0.48522,0.290841 0.0741,-0.04214 -0.14476,0.0904 -0.21373,0.140533 -0.19249,0.139922 -0.37105,0.292897 -0.56874,0.426524 -0.37487,0.261679 -0.72264,0.558478 -1.01234,0.912699 -0.37856,0.550069 -0.95948,0.870117 -1.4867,1.252487 -1.22487,1.285119 -2.26034,1.38143 -4.17539,2.673768 -1.00536,0.67845 2.09818,-1.21748 3.15657,-1.809797 0.0753,-0.04214 -0.13668,0.10533 -0.20502,0.157996 -0.31689,0.347379 -0.71297,0.591497 -1.11329,0.828955 -0.55189,0.397981 -0.93979,0.975553 -1.33916,1.51669 -0.38751,0.501848 -0.69285,1.048006 -0.99393,1.602724 -0.4018,0.633375 -0.8679,1.22252 -1.29097,1.84173 -0.31995,0.492688 -0.50808,1.055126 -0.69446,1.6085 -0.15844,0.518665 -0.12388,1.066683 -0.26016,1.588264 -0.0532,0.08638 -0.0954,0.180505 -0.1595,0.259128 -0.12508,0.153482 -0.29861,0.261205 -0.43303,0.406583 -0.22251,0.240643 -0.34161,0.500303 -0.45827,0.801806 -0.22262,0.748102 -0.21578,1.538163 -0.22929,2.311667 -5.2e-4,0.807538 7e-5,1.615094 0.002,2.422631 0.006,0.747684 0.009,1.495364 0.007,2.243069 -0.0456,0.71796 0.25801,1.377963 0.47934,2.043903 0.15575,0.653566 0.36738,1.287357 0.59082,1.920537 0.22239,0.867283 0.54229,1.691624 0.87939,2.519973 0.43357,0.939335 0.90741,1.85909 1.39694,2.770516 0.47002,0.932596 0.96,1.667126 1.68183,2.413426 0.48135,0.42633 0.98597,0.86884 1.55751,1.16876 0.89179,0.32409 1.74351,0.75133 2.63367,1.07859 1.04587,0.3243 2.15026,0.36561 3.23674,0.40347 0.89321,0.025 1.78686,0.015 2.68024,0.007 0.6399,-0.004 1.27984,-0.006 1.91976,-0.007 0.60775,-0.002 1.21549,5.3e-4 1.82324,-1.1e-4 0.35106,-0.004 0.7271,0.0312 1.06128,-0.10844 0.0836,-0.035 0.31263,-0.18375 0.23372,-0.13911 -1.04113,0.58908 -2.08029,1.18163 -3.12044,1.77244 0.82661,-0.50729 1.50224,-1.22143 2.19035,-1.89637 0.71721,-0.71515 1.37298,-1.49322 2.00564,-2.28384 0.48311,-0.62994 0.88133,-1.31804 1.3298,-1.97129 0.24965,-0.309693 0.12936,-0.157785 0.36126,-0.455399 0,0 3.62897,-1.571283 3.62897,-1.571283 v 0 c -0.21967,0.326276 -0.10004,0.167311 -0.36021,0.47589 -0.54154,0.577299 -0.85691,1.354275 -1.34645,1.977622 -0.63733,0.8021 -1.29664,1.5927 -2.00208,2.33357 -0.68701,0.67795 -1.35788,1.38156 -2.1207,1.9752 -2.67762,1.52561 -2.84451,2.25979 -5.05732,2.21318 -0.60797,-5.3e-4 -1.21592,10e-4 -1.82389,10e-4 -0.63782,1.1e-4 -1.27563,0.002 -1.91344,0.004 -0.88982,-0.002 -1.77982,-0.007 -2.66917,-0.0386 -1.11593,-0.0612 -2.25082,-0.12618 -3.31321,-0.50308 -0.89996,-0.3561 -1.78614,-0.75065 -2.68114,-1.11806 -0.58696,-0.35386 -1.13742,-0.78388 -1.62091,-1.27014 -0.28387,-0.31293 -0.5857,-0.63741 -0.82553,-0.98585 -0.33353,-0.48457 -0.54756,-1.04218 -0.87169,-1.53255 -0.51277,-0.91521 -1.00746,-1.839005 -1.43583,-2.797607 -0.34894,-0.828881 -0.68366,-1.65363 -0.90382,-2.527006 -0.23405,-0.633899 -0.46747,-1.26506 -0.60094,-1.92913 -0.22485,-0.704048 -0.5677,-1.400127 -0.53488,-2.154838 -0.003,-0.748631 -5.3e-4,-1.497251 5.3e-4,-2.245884 -0.003,-0.809328 -0.0135,-1.618654 -0.005,-2.428002 0.006,-0.805275 -5.3e-4,-1.622694 0.16421,-2.414055 0.17027,-0.608137 0.39836,-1.219542 1.02188,-1.486226 0.29089,-0.456517 0.13473,-1.0424 0.28757,-1.5499 0.13987,-0.596802 0.39559,-1.17535 0.65979,-1.725705 0.39663,-0.625681 0.84215,-1.220525 1.29438,-1.806702 0.30897,-0.569336 0.58123,-1.14445 0.98389,-1.657355 0.40484,-0.551974 0.78508,-1.129541 1.26657,-1.615504 0.34952,-0.312189 0.81643,-0.440608 1.14138,-0.78545 1.08572,-1.265888 0.187,-0.264665 3.7882,-2.338421 1.05538,-0.607743 -2.09211,1.247388 -3.14483,1.859729 -0.0703,0.04091 0.13549,-0.09096 0.19653,-0.144772 0.15049,-0.132683 0.25263,-0.2751 0.37794,-0.431361 0.47881,-0.430299 1.09038,-0.672732 1.51809,-1.161391 0.26823,-0.384767 0.56172,-0.755184 0.96433,-1.00848 0.38127,-0.328724 -0.0459,0.01963 0.38033,-0.265888 0.14496,-0.09709 0.24469,-0.254513 0.39438,-0.344143 0.15971,-0.09562 8.73831,-5.062406 0.48991,-0.268026 1.49856,-1.112478 3.08421,-2.552383 5.01161,-2.426867 0.85589,0.0026 1.7119,0.0057 2.56773,-0.0069 0,0 -3.20274,2.326926 -3.20274,2.326926 z"
       inkscape:connector-curvature="0" />
    <path
       style="opacity:0.72000002;fill:#0000ff;fill-opacity:1;stroke:#008000;stroke-width:0.26499999;stroke-miterlimit:4;stroke-dasharray:none;stroke-opacity:1"
       id="path72"
       d="m 123.7834,91.341997 c 1.92758,-0.187142 3.8127,-0.695523 5.68458,-1.17761 1.27745,-0.263977 2.50519,-0.682747 3.72583,-1.130115 0.97686,-0.296489 1.91897,-0.69619 2.89948,-0.978469 1.26956,-0.434948 2.55055,-0.834051 3.81512,-1.286811 1.38772,-0.425977 2.76031,-0.889482 4.13811,-1.345539 0.58383,-0.212942 1.12035,-0.528182 1.70211,-0.743352 0,0 -3.10643,2.444766 -3.10643,2.444766 v 0 c -0.5558,0.245324 -1.10323,0.511667 -1.68375,0.696711 -1.36532,0.452295 -2.73897,0.875022 -4.10344,1.329592 -1.28113,0.453901 -2.57429,0.873485 -3.86327,1.303449 -0.96367,0.31932 -1.91779,0.666954 -2.88057,0.988978 -1.21038,0.442426 -2.4489,0.789633 -3.7081,1.065988 -1.90442,0.474916 -3.81952,0.929553 -5.7665,1.192935 0,0 3.14683,-2.360523 3.14683,-2.360523 z"
       inkscape:connector-curvature="0" />
    <path
       style="opacity:0.72000002;fill:#0000ff;fill-opacity:1;stroke:#008000;stroke-width:0.26499999;stroke-miterlimit:4;stroke-dasharray:none;stroke-opacity:1"
       id="path74"
       d="m 157.83577,110.06246 c -0.18401,-1.18975 -0.63068,-2.31648 -0.96714,-3.4686 -0.31806,-1.14444 -0.49174,-2.32539 -0.65949,-3.49991 -0.13232,-0.94127 -0.16009,-1.89287 -0.18398,-2.84182 -0.0115,-0.841455 -0.008,-1.68297 -0.003,-2.524451 0.0396,-0.891207 0.002,-1.757717 -0.28377,-2.605437 -0.23218,-0.804137 -0.47528,-1.602507 -0.6229,-2.427076 -0.0884,-0.866227 -0.30603,-1.710584 -0.45502,-2.566516 -0.16424,-1.031201 -0.20058,-2.076085 -0.22077,-3.118255 -0.0427,-0.767538 0.0466,-1.543383 -0.0357,-2.309252 -0.0328,-0.305059 -0.16125,-0.872249 -0.22315,-1.164672 -0.29688,-1.195001 -0.59978,-2.39056 -1.03289,-3.544495 -0.38862,-0.944859 -0.65499,-1.935084 -0.95628,-2.910494 -0.31243,-0.823507 -0.51312,-1.681945 -0.75952,-2.525731 -0.19523,-0.895051 -0.46836,-1.758423 -0.86584,-2.583598 -0.30286,-0.6502 -0.57031,-1.314934 -0.86968,-1.966341 -0.21151,-0.537996 -0.30627,-1.104537 -0.49891,-1.650402 -0.18484,-0.676822 -0.0585,-1.393841 0.10733,-2.062636 0.10934,-0.378875 0.32019,-0.748675 0.67413,-0.951426 3.46756,-1.986372 2.37462,-1.543854 3.92569,-2.151811 0.63426,-0.230023 1.27196,-0.448852 1.92757,-0.61495 0.13743,-0.02088 0.27725,-0.02963 0.41228,-0.0626 0.28286,-0.06906 0.55025,-0.192752 0.83225,-0.26524 0.51017,-0.131146 1.03063,-0.198382 1.55205,-0.264443 0.8418,-0.106868 1.64358,-0.385225 2.47197,-0.554297 0.78401,-0.100999 1.57542,-0.107923 2.36455,-0.117207 0.77941,-0.0036 1.55882,-0.0028 2.33822,-1.01e-4 0.96654,-0.01016 1.92675,-5.29e-4 2.88856,0.09644 0.85079,0.176339 1.55621,0.64281 2.26196,1.121836 0.70405,0.653327 1.36916,1.330097 1.91534,2.121556 0.56776,0.887161 0.80916,1.91266 1.12821,2.901471 0.40678,1.081093 0.55988,2.209011 0.64221,3.352906 0.0615,1.181465 0.0741,2.364639 0.0791,3.547454 0.0338,0.88034 -0.17709,1.747485 -0.46143,2.574393 -0.22237,0.668414 -0.53346,1.300358 -0.85354,1.925957 -0.41346,0.642313 -0.88944,1.243645 -1.35668,1.847655 -1.22147,1.471684 -3.07216,2.124612 -4.7014,3.080332 -1.01944,0.598011 2.05097,-1.175182 3.07645,-1.762774 -0.60562,0.426493 -1.20974,0.853684 -1.8219,1.271609 -1.93884,1.284814 -7.99312,4.53031 -1.18603,0.725562 0.13814,-0.07721 -0.2341,0.160073 -0.62883,0.413091 -1.39886,0.86723 -2.79431,1.763615 -4.3147,2.386105 -0.25313,0.103637 -0.47947,0.223433 -0.74258,0.305668 -0.62783,0.20057 -1.25358,0.41058 -1.90089,0.543875 -0.53209,0.251468 -1.12947,0.254367 -1.68682,0.406847 -0.52924,0.38001 -1.15879,0.572013 -1.76717,0.786879 -0.63044,0.125923 -1.21383,0.392866 -1.82767,0.575397 -0.2854,0.05274 -0.55978,0.161017 -0.82565,0.275479 -0.0596,0.02566 -0.22928,0.121891 -0.17298,0.08953 3.35995,-1.931231 3.95614,-0.792673 3.24728,-2.028026 -0.0205,-0.08838 -0.0804,-0.176432 -0.0614,-0.265136 0.0316,-0.147675 1.02137,-0.326327 1.17222,-0.351685 0.61926,-0.08133 1.246,-0.08673 1.86971,-0.09445 0.61414,-0.0044 1.2283,6.1e-5 1.84245,5.29e-4 0.5927,-0.0011 1.18539,7.94e-4 1.77808,0.0019 0.64618,0.0073 1.2925,-0.03151 1.93468,0.0482 0.63179,0.09091 1.22551,0.31622 1.85918,0.407917 0.57212,0.101891 0.96181,0.373377 1.41197,0.710858 0.49411,0.420145 0.96295,0.887865 1.33634,1.419379 0.48397,0.668051 0.86992,1.400918 1.35268,2.068584 0.53918,0.746582 1.0939,1.484251 1.75347,2.128639 0.9344,0.960596 2.11883,1.594088 3.26042,2.267664 0.57885,0.381116 1.24819,0.575553 1.86594,0.875033 0.28541,0.138361 0.55899,0.299915 0.84004,0.446939 0.71302,0.43362 1.49644,0.661151 2.31699,0.768294 0.69872,0.07 1.40208,0.06426 2.10345,0.06412 0.85442,-0.0036 1.70884,-0.0016 2.56327,-0.0047 0.42147,-0.04162 0.85978,0.04912 1.2801,-0.0035 0.33112,-0.04144 0.67847,-0.193257 0.99783,-0.288178 0.77646,-0.17239 1.56963,-0.21036 2.36167,-0.231844 0.69955,-0.01072 1.41079,-0.1084 2.06151,-0.371737 0.1952,-0.103211 0.41711,-0.132863 0.61929,-0.216088 0.0884,-0.0364 0.33759,-0.179806 0.25458,-0.132297 -6.69102,3.829818 -3.62595,2.455325 -2.86587,1.505082 0.17736,-0.467693 0.27938,-0.969166 0.37787,-1.46059 0.0983,-0.560199 0.10312,-1.130831 0.11111,-1.697865 0.0106,-0.606999 -0.11182,-1.206736 -0.17994,-1.8083 -0.0356,-0.385488 -0.0101,-0.204087 -0.0712,-0.544902 0,0 3.49086,-1.863738 3.49086,-1.863738 v 0 c 0.078,0.377939 0.0506,0.185357 0.0808,0.577953 0.0618,0.617326 0.19356,1.229299 0.20359,1.848903 -0.006,0.584433 -0.008,1.17148 -0.0754,1.752621 -0.0835,0.529403 -0.24677,1.037953 -0.32925,1.567207 -0.60109,1.824469 -3.03877,2.250159 -4.73164,2.894401 -0.68987,0.191036 -1.40153,0.271416 -2.11752,0.272106 -0.78032,0.039 -1.56428,0.099 -2.31887,0.31623 -0.76807,0.20529 -1.53442,0.22884 -2.32796,0.1948 -0.85755,5.3e-4 -1.71504,0.008 -2.57259,0.01 -0.71408,-0.002 -1.43083,-0.003 -2.13834,-0.11449 -0.84338,-0.1555 -1.64017,-0.44113 -2.38022,-0.881211 -0.88998,-0.471487 -1.83322,-0.830786 -2.69563,-1.354074 -1.15977,-0.70267 -2.35357,-1.376008 -3.32577,-2.337337 -0.6684,-0.66562 -1.24856,-1.411832 -1.79762,-2.178066 -0.48334,-0.667901 -0.86908,-1.399518 -1.35774,-2.064707 -0.36803,-0.488003 -0.81173,-0.92668 -1.28974,-1.306859 -0.39494,-0.289455 -0.81101,-0.490453 -1.30286,-0.559475 -0.61523,-0.116893 -1.20539,-0.344371 -1.8335,-0.387615 -0.63986,-0.03059 -1.28083,-0.0083 -1.92132,-0.01587 -0.59304,5.29e-4 -1.18608,0.0016 -1.77912,-0.0019 -0.61292,-0.0016 -1.22587,-0.0027 -1.83875,0.006 -0.61205,0.01344 -1.22836,0.02805 -1.82987,0.15348 -0.19105,0.04443 -1.10951,0.371517 -1.24183,0.302876 -0.1132,-0.05872 -0.18301,-0.177633 -0.27451,-0.266451 -0.0242,-0.07335 -0.1373,-0.177737 -0.0727,-0.220036 1.71122,-1.119925 2.78862,-1.87594 4.50256,-2.340964 0.60372,-0.205438 1.20643,-0.407514 1.81735,-0.589793 0.61008,-0.234575 1.19734,-0.514694 1.80381,-0.749829 0.56926,-0.103169 1.12889,-0.23091 1.68123,-0.404543 0.63656,-0.162555 1.26259,-0.36699 1.88088,-0.588539 0.24318,-0.1005 0.48586,-0.203012 0.72779,-0.306398 0.097,-0.04144 0.37947,-0.182867 0.28887,-0.128913 -2.21361,1.318326 -4.20953,2.411238 -2.75157,1.610415 2.1774,-1.409432 8.27961,-4.846865 1.50786,-0.931013 -0.1064,0.06152 0.20909,-0.129228 0.31364,-0.193839 0.6024,-0.432763 1.24324,-0.807947 1.80867,-1.291206 2.64795,-1.536076 6.62012,-3.845423 0.60497,-0.338175 -0.1018,0.05936 0.20585,-0.115279 0.30381,-0.180795 0.22569,-0.150947 0.33336,-0.251666 0.52835,-0.435636 0.082,-0.07735 0.16148,-0.157306 0.24222,-0.235961 0.47076,-0.585071 0.90832,-1.195372 1.37629,-1.780582 0.33982,-0.60434 0.6576,-1.230056 0.88829,-1.884135 0.31684,-0.77356 0.54109,-1.615946 0.538,-2.454598 0.004,-1.177232 0.0128,-2.355432 -0.0503,-3.531463 -0.0767,-1.109633 -0.21707,-2.210524 -0.6092,-3.259931 -0.32216,-0.947576 -0.5267,-1.948926 -1.07839,-2.801681 -0.51811,-0.75013 -1.1644,-1.389665 -1.85014,-1.988386 -0.66394,-0.440026 -1.33639,-0.859792 -2.14439,-0.965723 -0.95752,-0.08467 -1.91669,-0.06534 -2.87721,-0.05979 -0.77763,-2.04e-4 -1.55532,-0.0059 -2.33291,0.0044 -0.77762,0.01421 -1.56175,0.02843 -2.32616,0.18665 -0.81742,0.189667 -1.62724,0.415097 -2.46358,0.511932 -0.94739,0.149728 -1.85819,0.41865 -2.78795,0.64734 -0.64651,0.189209 -1.28161,0.412771 -1.90871,0.658728 -1.40262,0.580959 -0.13923,0.07173 2.8701,-1.718109 0.0802,-0.04772 -0.17365,0.06981 -0.25548,0.114755 -0.13878,0.07623 -0.3219,0.206984 -0.41961,0.335862 -0.0518,0.06831 -0.0811,0.151048 -0.12161,0.226571 -0.17584,0.594124 -0.33449,1.230466 -0.21693,1.84999 0.1908,0.535911 0.31643,1.079905 0.48742,1.619806 0.28746,0.654304 0.54365,1.320731 0.84636,1.968762 0.40168,0.845373 0.6925,1.725123 0.89446,2.639618 0.24984,0.842068 0.44429,1.701297 0.75137,2.52585 0.29212,0.970603 0.56126,1.951501 0.93012,2.895759 0.44464,1.169889 0.74007,2.387706 1.05574,3.59727 0.0518,0.231179 0.22537,0.980186 0.25605,1.21817 0.0988,0.766797 0.004,1.547559 0.0498,2.316994 0.0212,1.022548 0.0429,2.048385 0.20044,3.061141 0.15042,0.855295 0.38414,1.695908 0.46399,2.563075 0.13273,0.807106 0.37139,1.586814 0.59617,2.372156 0.0793,0.234635 0.20944,0.594728 0.25368,0.835014 0.11415,0.620078 0.0714,1.262095 0.0825,1.888054 0.003,0.838377 -0.001,1.676725 0.005,2.515086 0.009,0.937652 0.0309,1.876939 0.1466,2.808599 0.15236,1.16083 0.32118,2.32588 0.61125,3.4609 0.33342,1.1544 0.78643,2.27263 1.03162,3.4504 0,0 -3.48118,1.88256 -3.48118,1.88256 z"
       inkscape:connector-curvature="0" />
  </g>
</svg>
